<mxfile host="app.diagrams.net" modified="2024-03-05T20:46:05.301Z" agent="Mozilla/5.0 (Windows NT 10.0; Win64; x64) AppleWebKit/537.36 (KHTML, like Gecko) Chrome/122.0.0.0 Safari/537.36" etag="XqDQzoSTdKGRYmISOBhc" version="24.0.1" type="device">
  <diagram name="Page-1" id="aFOdHDlO-vq2RaZ9bUTm">
    <mxGraphModel dx="947" dy="-660" grid="1" gridSize="10" guides="1" tooltips="1" connect="1" arrows="1" fold="1" page="1" pageScale="1" pageWidth="850" pageHeight="1100" math="0" shadow="0">
      <root>
        <mxCell id="0" />
        <mxCell id="1" parent="0" />
        <mxCell id="_GlBLlb9-DX69AZyZuQx-1" value="" style="group" vertex="1" connectable="0" parent="1">
          <mxGeometry x="2325" y="3408.003333333333" width="164" height="82" as="geometry" />
        </mxCell>
        <mxCell id="_GlBLlb9-DX69AZyZuQx-2" value="Bejelentkezés/regisztráció" style="rounded=0;whiteSpace=wrap;html=1;" vertex="1" parent="_GlBLlb9-DX69AZyZuQx-1">
          <mxGeometry width="164" height="82" as="geometry" />
        </mxCell>
        <mxCell id="_GlBLlb9-DX69AZyZuQx-3" value="" style="endArrow=none;html=1;rounded=0;exitX=0;exitY=0.25;exitDx=0;exitDy=0;entryX=1;entryY=0.25;entryDx=0;entryDy=0;" edge="1" parent="_GlBLlb9-DX69AZyZuQx-1" source="_GlBLlb9-DX69AZyZuQx-2" target="_GlBLlb9-DX69AZyZuQx-2">
          <mxGeometry width="50" height="50" relative="1" as="geometry">
            <mxPoint x="54.66666666666667" y="68.33333333333333" as="sourcePoint" />
            <mxPoint x="123" as="targetPoint" />
          </mxGeometry>
        </mxCell>
        <mxCell id="_GlBLlb9-DX69AZyZuQx-4" value="" style="endArrow=none;html=1;rounded=0;exitX=0.25;exitY=0;exitDx=0;exitDy=0;" edge="1" parent="_GlBLlb9-DX69AZyZuQx-1" source="_GlBLlb9-DX69AZyZuQx-2">
          <mxGeometry width="50" height="50" relative="1" as="geometry">
            <mxPoint x="41" y="-6.833333333333334" as="sourcePoint" />
            <mxPoint x="41" y="20.5" as="targetPoint" />
          </mxGeometry>
        </mxCell>
        <mxCell id="_GlBLlb9-DX69AZyZuQx-5" value="&lt;font style=&quot;font-size: 11px;&quot;&gt;1&lt;/font&gt;" style="text;html=1;align=center;verticalAlign=middle;resizable=0;points=[];autosize=1;strokeColor=none;fillColor=none;" vertex="1" parent="_GlBLlb9-DX69AZyZuQx-1">
          <mxGeometry x="8" y="-5" width="30" height="30" as="geometry" />
        </mxCell>
        <mxCell id="_GlBLlb9-DX69AZyZuQx-6" value="Főoldal" style="text;html=1;align=center;verticalAlign=middle;resizable=0;points=[];autosize=1;strokeColor=none;fillColor=none;" vertex="1" parent="_GlBLlb9-DX69AZyZuQx-1">
          <mxGeometry x="66" y="-4.00333333333333" width="58" height="28" as="geometry" />
        </mxCell>
        <mxCell id="_GlBLlb9-DX69AZyZuQx-7" value="" style="group" vertex="1" connectable="0" parent="1">
          <mxGeometry x="2245" y="3060.003333333333" width="164" height="82" as="geometry" />
        </mxCell>
        <mxCell id="_GlBLlb9-DX69AZyZuQx-8" value="Adatok módosítása" style="rounded=0;whiteSpace=wrap;html=1;" vertex="1" parent="_GlBLlb9-DX69AZyZuQx-7">
          <mxGeometry width="164" height="82" as="geometry" />
        </mxCell>
        <mxCell id="_GlBLlb9-DX69AZyZuQx-9" value="" style="endArrow=none;html=1;rounded=0;exitX=0;exitY=0.25;exitDx=0;exitDy=0;entryX=1;entryY=0.25;entryDx=0;entryDy=0;" edge="1" parent="_GlBLlb9-DX69AZyZuQx-7" source="_GlBLlb9-DX69AZyZuQx-8" target="_GlBLlb9-DX69AZyZuQx-8">
          <mxGeometry width="50" height="50" relative="1" as="geometry">
            <mxPoint x="54.66666666666667" y="68.33333333333333" as="sourcePoint" />
            <mxPoint x="123" as="targetPoint" />
          </mxGeometry>
        </mxCell>
        <mxCell id="_GlBLlb9-DX69AZyZuQx-10" value="" style="endArrow=none;html=1;rounded=0;exitX=0.25;exitY=0;exitDx=0;exitDy=0;" edge="1" parent="_GlBLlb9-DX69AZyZuQx-7" source="_GlBLlb9-DX69AZyZuQx-8">
          <mxGeometry width="50" height="50" relative="1" as="geometry">
            <mxPoint x="41" y="-6.833333333333334" as="sourcePoint" />
            <mxPoint x="41" y="20.5" as="targetPoint" />
          </mxGeometry>
        </mxCell>
        <mxCell id="_GlBLlb9-DX69AZyZuQx-11" value="&lt;font style=&quot;font-size: 11px;&quot;&gt;2&lt;/font&gt;" style="text;html=1;align=center;verticalAlign=middle;resizable=0;points=[];autosize=1;strokeColor=none;fillColor=none;" vertex="1" parent="_GlBLlb9-DX69AZyZuQx-7">
          <mxGeometry x="8" y="-5" width="30" height="30" as="geometry" />
        </mxCell>
        <mxCell id="_GlBLlb9-DX69AZyZuQx-12" value="Profil oldal" style="text;html=1;align=center;verticalAlign=middle;resizable=0;points=[];autosize=1;strokeColor=none;fillColor=none;" vertex="1" parent="_GlBLlb9-DX69AZyZuQx-7">
          <mxGeometry x="58" y="-4.00333333333333" width="76" height="28" as="geometry" />
        </mxCell>
        <mxCell id="_GlBLlb9-DX69AZyZuQx-13" value="" style="group" vertex="1" connectable="0" parent="1">
          <mxGeometry x="2490" y="3582.003333333333" width="164" height="82" as="geometry" />
        </mxCell>
        <mxCell id="_GlBLlb9-DX69AZyZuQx-14" value="Kijelentkezés" style="rounded=0;whiteSpace=wrap;html=1;" vertex="1" parent="_GlBLlb9-DX69AZyZuQx-13">
          <mxGeometry width="164" height="82" as="geometry" />
        </mxCell>
        <mxCell id="_GlBLlb9-DX69AZyZuQx-15" value="" style="endArrow=none;html=1;rounded=0;exitX=0;exitY=0.25;exitDx=0;exitDy=0;entryX=1;entryY=0.25;entryDx=0;entryDy=0;" edge="1" parent="_GlBLlb9-DX69AZyZuQx-13" source="_GlBLlb9-DX69AZyZuQx-14" target="_GlBLlb9-DX69AZyZuQx-14">
          <mxGeometry width="50" height="50" relative="1" as="geometry">
            <mxPoint x="54.66666666666667" y="68.33333333333333" as="sourcePoint" />
            <mxPoint x="123" as="targetPoint" />
          </mxGeometry>
        </mxCell>
        <mxCell id="_GlBLlb9-DX69AZyZuQx-16" value="" style="endArrow=none;html=1;rounded=0;exitX=0.25;exitY=0;exitDx=0;exitDy=0;" edge="1" parent="_GlBLlb9-DX69AZyZuQx-13" source="_GlBLlb9-DX69AZyZuQx-14">
          <mxGeometry width="50" height="50" relative="1" as="geometry">
            <mxPoint x="41" y="-6.833333333333334" as="sourcePoint" />
            <mxPoint x="41" y="20.5" as="targetPoint" />
          </mxGeometry>
        </mxCell>
        <mxCell id="_GlBLlb9-DX69AZyZuQx-17" value="&lt;font style=&quot;font-size: 11px;&quot;&gt;13&lt;/font&gt;" style="text;html=1;align=center;verticalAlign=middle;resizable=0;points=[];autosize=1;strokeColor=none;fillColor=none;" vertex="1" parent="_GlBLlb9-DX69AZyZuQx-13">
          <mxGeometry x="7" y="-4" width="32" height="28" as="geometry" />
        </mxCell>
        <mxCell id="_GlBLlb9-DX69AZyZuQx-18" value="" style="group" vertex="1" connectable="0" parent="1">
          <mxGeometry x="2489" y="2910" width="184" height="82" as="geometry" />
        </mxCell>
        <mxCell id="_GlBLlb9-DX69AZyZuQx-19" value="Poszt" style="rounded=0;whiteSpace=wrap;html=1;" vertex="1" parent="_GlBLlb9-DX69AZyZuQx-18">
          <mxGeometry width="164" height="82" as="geometry" />
        </mxCell>
        <mxCell id="_GlBLlb9-DX69AZyZuQx-20" value="" style="endArrow=none;html=1;rounded=0;exitX=0;exitY=0.25;exitDx=0;exitDy=0;entryX=1;entryY=0.25;entryDx=0;entryDy=0;" edge="1" parent="_GlBLlb9-DX69AZyZuQx-18" source="_GlBLlb9-DX69AZyZuQx-19" target="_GlBLlb9-DX69AZyZuQx-19">
          <mxGeometry width="50" height="50" relative="1" as="geometry">
            <mxPoint x="54.66666666666667" y="68.33333333333333" as="sourcePoint" />
            <mxPoint x="123" as="targetPoint" />
          </mxGeometry>
        </mxCell>
        <mxCell id="_GlBLlb9-DX69AZyZuQx-21" value="" style="endArrow=none;html=1;rounded=0;exitX=0.25;exitY=0;exitDx=0;exitDy=0;" edge="1" parent="_GlBLlb9-DX69AZyZuQx-18" source="_GlBLlb9-DX69AZyZuQx-19">
          <mxGeometry width="50" height="50" relative="1" as="geometry">
            <mxPoint x="41" y="-6.833333333333334" as="sourcePoint" />
            <mxPoint x="41" y="20.5" as="targetPoint" />
          </mxGeometry>
        </mxCell>
        <mxCell id="_GlBLlb9-DX69AZyZuQx-22" value="&lt;font style=&quot;font-size: 11px;&quot;&gt;5&lt;/font&gt;" style="text;html=1;align=center;verticalAlign=middle;resizable=0;points=[];autosize=1;strokeColor=none;fillColor=none;" vertex="1" parent="_GlBLlb9-DX69AZyZuQx-18">
          <mxGeometry x="10" y="-4" width="26" height="28" as="geometry" />
        </mxCell>
        <mxCell id="_GlBLlb9-DX69AZyZuQx-23" value="Főoldal/csoport oldal" style="text;html=1;align=center;verticalAlign=middle;whiteSpace=wrap;rounded=0;" vertex="1" parent="_GlBLlb9-DX69AZyZuQx-18">
          <mxGeometry x="39" width="126" height="22" as="geometry" />
        </mxCell>
        <mxCell id="_GlBLlb9-DX69AZyZuQx-24" value="" style="group" vertex="1" connectable="0" parent="1">
          <mxGeometry x="2725" y="2843" width="164" height="82" as="geometry" />
        </mxCell>
        <mxCell id="_GlBLlb9-DX69AZyZuQx-25" value="&lt;span style=&quot;text-wrap: nowrap;&quot;&gt;Hozzászólás&lt;/span&gt;" style="rounded=0;whiteSpace=wrap;html=1;" vertex="1" parent="_GlBLlb9-DX69AZyZuQx-24">
          <mxGeometry width="164" height="82" as="geometry" />
        </mxCell>
        <mxCell id="_GlBLlb9-DX69AZyZuQx-26" value="" style="endArrow=none;html=1;rounded=0;exitX=0;exitY=0.25;exitDx=0;exitDy=0;entryX=1;entryY=0.25;entryDx=0;entryDy=0;" edge="1" parent="_GlBLlb9-DX69AZyZuQx-24" source="_GlBLlb9-DX69AZyZuQx-25" target="_GlBLlb9-DX69AZyZuQx-25">
          <mxGeometry width="50" height="50" relative="1" as="geometry">
            <mxPoint x="54.66666666666667" y="68.33333333333333" as="sourcePoint" />
            <mxPoint x="123" as="targetPoint" />
          </mxGeometry>
        </mxCell>
        <mxCell id="_GlBLlb9-DX69AZyZuQx-27" value="" style="endArrow=none;html=1;rounded=0;exitX=0.25;exitY=0;exitDx=0;exitDy=0;" edge="1" parent="_GlBLlb9-DX69AZyZuQx-24" source="_GlBLlb9-DX69AZyZuQx-25">
          <mxGeometry width="50" height="50" relative="1" as="geometry">
            <mxPoint x="41" y="-6.833333333333334" as="sourcePoint" />
            <mxPoint x="41" y="20.5" as="targetPoint" />
          </mxGeometry>
        </mxCell>
        <mxCell id="_GlBLlb9-DX69AZyZuQx-28" value="&lt;font style=&quot;font-size: 11px;&quot;&gt;6&lt;/font&gt;" style="text;html=1;align=center;verticalAlign=middle;resizable=0;points=[];autosize=1;strokeColor=none;fillColor=none;" vertex="1" parent="_GlBLlb9-DX69AZyZuQx-24">
          <mxGeometry x="10" y="-4" width="26" height="28" as="geometry" />
        </mxCell>
        <mxCell id="_GlBLlb9-DX69AZyZuQx-29" value="Poszt" style="text;html=1;align=center;verticalAlign=middle;resizable=0;points=[];autosize=1;strokeColor=none;fillColor=none;" vertex="1" parent="_GlBLlb9-DX69AZyZuQx-24">
          <mxGeometry x="62" y="-3" width="50" height="28" as="geometry" />
        </mxCell>
        <mxCell id="_GlBLlb9-DX69AZyZuQx-30" value="" style="group" vertex="1" connectable="0" parent="1">
          <mxGeometry x="2992" y="2982.5" width="164" height="82" as="geometry" />
        </mxCell>
        <mxCell id="_GlBLlb9-DX69AZyZuQx-31" value="Kedvelés" style="rounded=0;whiteSpace=wrap;html=1;" vertex="1" parent="_GlBLlb9-DX69AZyZuQx-30">
          <mxGeometry width="164" height="82" as="geometry" />
        </mxCell>
        <mxCell id="_GlBLlb9-DX69AZyZuQx-32" value="" style="endArrow=none;html=1;rounded=0;exitX=0;exitY=0.25;exitDx=0;exitDy=0;entryX=1;entryY=0.25;entryDx=0;entryDy=0;" edge="1" parent="_GlBLlb9-DX69AZyZuQx-30" source="_GlBLlb9-DX69AZyZuQx-31" target="_GlBLlb9-DX69AZyZuQx-31">
          <mxGeometry width="50" height="50" relative="1" as="geometry">
            <mxPoint x="54.66666666666667" y="68.33333333333333" as="sourcePoint" />
            <mxPoint x="123" as="targetPoint" />
          </mxGeometry>
        </mxCell>
        <mxCell id="_GlBLlb9-DX69AZyZuQx-33" value="" style="endArrow=none;html=1;rounded=0;exitX=0.25;exitY=0;exitDx=0;exitDy=0;" edge="1" parent="_GlBLlb9-DX69AZyZuQx-30" source="_GlBLlb9-DX69AZyZuQx-31">
          <mxGeometry width="50" height="50" relative="1" as="geometry">
            <mxPoint x="41" y="-6.833333333333334" as="sourcePoint" />
            <mxPoint x="41" y="20.5" as="targetPoint" />
          </mxGeometry>
        </mxCell>
        <mxCell id="_GlBLlb9-DX69AZyZuQx-34" value="&lt;font style=&quot;font-size: 11px;&quot;&gt;7&lt;/font&gt;" style="text;html=1;align=center;verticalAlign=middle;resizable=0;points=[];autosize=1;strokeColor=none;fillColor=none;" vertex="1" parent="_GlBLlb9-DX69AZyZuQx-30">
          <mxGeometry x="10" y="-4" width="26" height="28" as="geometry" />
        </mxCell>
        <mxCell id="_GlBLlb9-DX69AZyZuQx-35" value="Poszt" style="text;html=1;align=center;verticalAlign=middle;resizable=0;points=[];autosize=1;strokeColor=none;fillColor=none;" vertex="1" parent="_GlBLlb9-DX69AZyZuQx-30">
          <mxGeometry x="66" y="-4" width="50" height="28" as="geometry" />
        </mxCell>
        <mxCell id="_GlBLlb9-DX69AZyZuQx-36" value="" style="group" vertex="1" connectable="0" parent="1">
          <mxGeometry x="2988" y="3082.5" width="164" height="82" as="geometry" />
        </mxCell>
        <mxCell id="_GlBLlb9-DX69AZyZuQx-37" value="Értesítés" style="rounded=0;whiteSpace=wrap;html=1;" vertex="1" parent="_GlBLlb9-DX69AZyZuQx-36">
          <mxGeometry width="164" height="82" as="geometry" />
        </mxCell>
        <mxCell id="_GlBLlb9-DX69AZyZuQx-38" value="" style="endArrow=none;html=1;rounded=0;exitX=0;exitY=0.25;exitDx=0;exitDy=0;entryX=1;entryY=0.25;entryDx=0;entryDy=0;" edge="1" parent="_GlBLlb9-DX69AZyZuQx-36" source="_GlBLlb9-DX69AZyZuQx-37" target="_GlBLlb9-DX69AZyZuQx-37">
          <mxGeometry width="50" height="50" relative="1" as="geometry">
            <mxPoint x="54.66666666666667" y="68.33333333333333" as="sourcePoint" />
            <mxPoint x="123" as="targetPoint" />
          </mxGeometry>
        </mxCell>
        <mxCell id="_GlBLlb9-DX69AZyZuQx-39" value="" style="endArrow=none;html=1;rounded=0;exitX=0.25;exitY=0;exitDx=0;exitDy=0;" edge="1" parent="_GlBLlb9-DX69AZyZuQx-36" source="_GlBLlb9-DX69AZyZuQx-37">
          <mxGeometry width="50" height="50" relative="1" as="geometry">
            <mxPoint x="41" y="-6.833333333333334" as="sourcePoint" />
            <mxPoint x="41" y="20.5" as="targetPoint" />
          </mxGeometry>
        </mxCell>
        <mxCell id="_GlBLlb9-DX69AZyZuQx-40" value="&lt;font style=&quot;font-size: 11px;&quot;&gt;9&lt;/font&gt;" style="text;html=1;align=center;verticalAlign=middle;resizable=0;points=[];autosize=1;strokeColor=none;fillColor=none;" vertex="1" parent="_GlBLlb9-DX69AZyZuQx-36">
          <mxGeometry x="10" y="-4" width="26" height="28" as="geometry" />
        </mxCell>
        <mxCell id="_GlBLlb9-DX69AZyZuQx-41" value="Értesítés lista" style="text;html=1;align=center;verticalAlign=middle;resizable=0;points=[];autosize=1;strokeColor=none;fillColor=none;" vertex="1" parent="_GlBLlb9-DX69AZyZuQx-36">
          <mxGeometry x="50" y="-4" width="92" height="28" as="geometry" />
        </mxCell>
        <mxCell id="_GlBLlb9-DX69AZyZuQx-42" value="" style="group" vertex="1" connectable="0" parent="1">
          <mxGeometry x="2821" y="3378.5" width="164" height="82" as="geometry" />
        </mxCell>
        <mxCell id="_GlBLlb9-DX69AZyZuQx-43" value="Képkezelés" style="rounded=0;whiteSpace=wrap;html=1;" vertex="1" parent="_GlBLlb9-DX69AZyZuQx-42">
          <mxGeometry width="164" height="82" as="geometry" />
        </mxCell>
        <mxCell id="_GlBLlb9-DX69AZyZuQx-44" value="" style="endArrow=none;html=1;rounded=0;exitX=0;exitY=0.25;exitDx=0;exitDy=0;entryX=1;entryY=0.25;entryDx=0;entryDy=0;elbow=vertical;" edge="1" parent="_GlBLlb9-DX69AZyZuQx-42" source="_GlBLlb9-DX69AZyZuQx-43" target="_GlBLlb9-DX69AZyZuQx-43">
          <mxGeometry width="50" height="50" relative="1" as="geometry">
            <mxPoint x="54.66666666666667" y="68.33333333333333" as="sourcePoint" />
            <mxPoint x="123" as="targetPoint" />
          </mxGeometry>
        </mxCell>
        <mxCell id="_GlBLlb9-DX69AZyZuQx-45" value="" style="endArrow=none;html=1;rounded=0;exitX=0.25;exitY=0;exitDx=0;exitDy=0;" edge="1" parent="_GlBLlb9-DX69AZyZuQx-42" source="_GlBLlb9-DX69AZyZuQx-43">
          <mxGeometry width="50" height="50" relative="1" as="geometry">
            <mxPoint x="41" y="-6.833333333333334" as="sourcePoint" />
            <mxPoint x="41" y="20.5" as="targetPoint" />
          </mxGeometry>
        </mxCell>
        <mxCell id="_GlBLlb9-DX69AZyZuQx-46" value="&lt;font style=&quot;font-size: 11px;&quot;&gt;10&lt;/font&gt;" style="text;html=1;align=center;verticalAlign=middle;resizable=0;points=[];autosize=1;strokeColor=none;fillColor=none;" vertex="1" parent="_GlBLlb9-DX69AZyZuQx-42">
          <mxGeometry x="7" y="-4" width="32" height="28" as="geometry" />
        </mxCell>
        <mxCell id="_GlBLlb9-DX69AZyZuQx-47" value="Profil oldal, album" style="text;html=1;align=center;verticalAlign=middle;resizable=0;points=[];autosize=1;strokeColor=none;fillColor=none;" vertex="1" parent="_GlBLlb9-DX69AZyZuQx-42">
          <mxGeometry x="42" y="-4" width="114" height="28" as="geometry" />
        </mxCell>
        <mxCell id="_GlBLlb9-DX69AZyZuQx-48" value="" style="group" vertex="1" connectable="0" parent="1">
          <mxGeometry x="2821" y="3508.5" width="164" height="82" as="geometry" />
        </mxCell>
        <mxCell id="_GlBLlb9-DX69AZyZuQx-49" value="Albumkezelés" style="rounded=0;whiteSpace=wrap;html=1;" vertex="1" parent="_GlBLlb9-DX69AZyZuQx-48">
          <mxGeometry width="164" height="82" as="geometry" />
        </mxCell>
        <mxCell id="_GlBLlb9-DX69AZyZuQx-50" value="" style="endArrow=none;html=1;rounded=0;exitX=0;exitY=0.25;exitDx=0;exitDy=0;entryX=1;entryY=0.25;entryDx=0;entryDy=0;" edge="1" parent="_GlBLlb9-DX69AZyZuQx-48" source="_GlBLlb9-DX69AZyZuQx-49" target="_GlBLlb9-DX69AZyZuQx-49">
          <mxGeometry width="50" height="50" relative="1" as="geometry">
            <mxPoint x="54.66666666666667" y="68.33333333333333" as="sourcePoint" />
            <mxPoint x="123" as="targetPoint" />
          </mxGeometry>
        </mxCell>
        <mxCell id="_GlBLlb9-DX69AZyZuQx-51" value="" style="endArrow=none;html=1;rounded=0;exitX=0.25;exitY=0;exitDx=0;exitDy=0;" edge="1" parent="_GlBLlb9-DX69AZyZuQx-48" source="_GlBLlb9-DX69AZyZuQx-49">
          <mxGeometry width="50" height="50" relative="1" as="geometry">
            <mxPoint x="41" y="-6.833333333333334" as="sourcePoint" />
            <mxPoint x="41" y="20.5" as="targetPoint" />
          </mxGeometry>
        </mxCell>
        <mxCell id="_GlBLlb9-DX69AZyZuQx-52" value="&lt;font style=&quot;font-size: 11px;&quot;&gt;11&lt;/font&gt;" style="text;html=1;align=center;verticalAlign=middle;resizable=0;points=[];autosize=1;strokeColor=none;fillColor=none;" vertex="1" parent="_GlBLlb9-DX69AZyZuQx-48">
          <mxGeometry x="8" y="-4" width="30" height="28" as="geometry" />
        </mxCell>
        <mxCell id="_GlBLlb9-DX69AZyZuQx-53" value="Profil oldal" style="text;html=1;align=center;verticalAlign=middle;resizable=0;points=[];autosize=1;strokeColor=none;fillColor=none;" vertex="1" parent="_GlBLlb9-DX69AZyZuQx-48">
          <mxGeometry x="58" y="-4" width="76" height="28" as="geometry" />
        </mxCell>
        <mxCell id="_GlBLlb9-DX69AZyZuQx-54" value="" style="group" vertex="1" connectable="0" parent="1">
          <mxGeometry x="2548" y="3090" width="164" height="82" as="geometry" />
        </mxCell>
        <mxCell id="_GlBLlb9-DX69AZyZuQx-55" value="Csoportkezelés" style="rounded=0;whiteSpace=wrap;html=1;" vertex="1" parent="_GlBLlb9-DX69AZyZuQx-54">
          <mxGeometry width="164" height="82" as="geometry" />
        </mxCell>
        <mxCell id="_GlBLlb9-DX69AZyZuQx-56" value="" style="endArrow=none;html=1;rounded=0;exitX=0;exitY=0.25;exitDx=0;exitDy=0;entryX=1;entryY=0.25;entryDx=0;entryDy=0;" edge="1" parent="_GlBLlb9-DX69AZyZuQx-54" source="_GlBLlb9-DX69AZyZuQx-55" target="_GlBLlb9-DX69AZyZuQx-55">
          <mxGeometry width="50" height="50" relative="1" as="geometry">
            <mxPoint x="54.66666666666667" y="68.33333333333333" as="sourcePoint" />
            <mxPoint x="123" as="targetPoint" />
          </mxGeometry>
        </mxCell>
        <mxCell id="_GlBLlb9-DX69AZyZuQx-57" value="" style="endArrow=none;html=1;rounded=0;exitX=0.25;exitY=0;exitDx=0;exitDy=0;" edge="1" parent="_GlBLlb9-DX69AZyZuQx-54" source="_GlBLlb9-DX69AZyZuQx-55">
          <mxGeometry width="50" height="50" relative="1" as="geometry">
            <mxPoint x="41" y="-6.833333333333334" as="sourcePoint" />
            <mxPoint x="41" y="20.5" as="targetPoint" />
          </mxGeometry>
        </mxCell>
        <mxCell id="_GlBLlb9-DX69AZyZuQx-58" value="&lt;font style=&quot;font-size: 11px;&quot;&gt;12&lt;/font&gt;" style="text;html=1;align=center;verticalAlign=middle;resizable=0;points=[];autosize=1;strokeColor=none;fillColor=none;" vertex="1" parent="_GlBLlb9-DX69AZyZuQx-54">
          <mxGeometry x="7" y="-4" width="32" height="28" as="geometry" />
        </mxCell>
        <mxCell id="_GlBLlb9-DX69AZyZuQx-59" value="Csoport oldal" style="text;html=1;align=center;verticalAlign=middle;resizable=0;points=[];autosize=1;strokeColor=none;fillColor=none;" vertex="1" parent="_GlBLlb9-DX69AZyZuQx-54">
          <mxGeometry x="52" y="-6" width="90" height="28" as="geometry" />
        </mxCell>
        <mxCell id="_GlBLlb9-DX69AZyZuQx-60" value="" style="group" vertex="1" connectable="0" parent="1">
          <mxGeometry x="1905" y="3520" width="164" height="82" as="geometry" />
        </mxCell>
        <mxCell id="_GlBLlb9-DX69AZyZuQx-61" value="Ismerősök kezelése&amp;nbsp;" style="rounded=0;whiteSpace=wrap;html=1;" vertex="1" parent="_GlBLlb9-DX69AZyZuQx-60">
          <mxGeometry width="164" height="82" as="geometry" />
        </mxCell>
        <mxCell id="_GlBLlb9-DX69AZyZuQx-62" value="" style="endArrow=none;html=1;rounded=0;exitX=0;exitY=0.25;exitDx=0;exitDy=0;entryX=1;entryY=0.25;entryDx=0;entryDy=0;" edge="1" parent="_GlBLlb9-DX69AZyZuQx-60" source="_GlBLlb9-DX69AZyZuQx-61" target="_GlBLlb9-DX69AZyZuQx-61">
          <mxGeometry width="50" height="50" relative="1" as="geometry">
            <mxPoint x="54.66666666666667" y="68.33333333333333" as="sourcePoint" />
            <mxPoint x="123" as="targetPoint" />
          </mxGeometry>
        </mxCell>
        <mxCell id="_GlBLlb9-DX69AZyZuQx-63" value="" style="endArrow=none;html=1;rounded=0;exitX=0.25;exitY=0;exitDx=0;exitDy=0;" edge="1" parent="_GlBLlb9-DX69AZyZuQx-60" source="_GlBLlb9-DX69AZyZuQx-61">
          <mxGeometry width="50" height="50" relative="1" as="geometry">
            <mxPoint x="41" y="-6.833333333333334" as="sourcePoint" />
            <mxPoint x="41" y="20.5" as="targetPoint" />
          </mxGeometry>
        </mxCell>
        <mxCell id="_GlBLlb9-DX69AZyZuQx-64" value="&lt;font style=&quot;font-size: 11px;&quot;&gt;15&lt;/font&gt;" style="text;html=1;align=center;verticalAlign=middle;resizable=0;points=[];autosize=1;strokeColor=none;fillColor=none;" vertex="1" parent="_GlBLlb9-DX69AZyZuQx-60">
          <mxGeometry x="7" y="-4" width="32" height="28" as="geometry" />
        </mxCell>
        <mxCell id="_GlBLlb9-DX69AZyZuQx-65" value="" style="group" vertex="1" connectable="0" parent="1">
          <mxGeometry x="2794" y="3082.5" width="164" height="82" as="geometry" />
        </mxCell>
        <mxCell id="_GlBLlb9-DX69AZyZuQx-66" value="Üzenet" style="rounded=0;whiteSpace=wrap;html=1;" vertex="1" parent="_GlBLlb9-DX69AZyZuQx-65">
          <mxGeometry width="164" height="82" as="geometry" />
        </mxCell>
        <mxCell id="_GlBLlb9-DX69AZyZuQx-67" value="" style="endArrow=none;html=1;rounded=0;exitX=0;exitY=0.25;exitDx=0;exitDy=0;entryX=1;entryY=0.25;entryDx=0;entryDy=0;" edge="1" parent="_GlBLlb9-DX69AZyZuQx-65" source="_GlBLlb9-DX69AZyZuQx-66" target="_GlBLlb9-DX69AZyZuQx-66">
          <mxGeometry width="50" height="50" relative="1" as="geometry">
            <mxPoint x="54.66666666666667" y="68.33333333333333" as="sourcePoint" />
            <mxPoint x="123" as="targetPoint" />
          </mxGeometry>
        </mxCell>
        <mxCell id="_GlBLlb9-DX69AZyZuQx-68" value="" style="endArrow=none;html=1;rounded=0;exitX=0.25;exitY=0;exitDx=0;exitDy=0;" edge="1" parent="_GlBLlb9-DX69AZyZuQx-65" source="_GlBLlb9-DX69AZyZuQx-66">
          <mxGeometry width="50" height="50" relative="1" as="geometry">
            <mxPoint x="41" y="-6.833333333333334" as="sourcePoint" />
            <mxPoint x="41" y="20.5" as="targetPoint" />
          </mxGeometry>
        </mxCell>
        <mxCell id="_GlBLlb9-DX69AZyZuQx-69" value="&lt;font style=&quot;font-size: 11px;&quot;&gt;8&lt;/font&gt;" style="text;html=1;align=center;verticalAlign=middle;resizable=0;points=[];autosize=1;strokeColor=none;fillColor=none;" vertex="1" parent="_GlBLlb9-DX69AZyZuQx-65">
          <mxGeometry x="10" y="-4" width="26" height="28" as="geometry" />
        </mxCell>
        <mxCell id="_GlBLlb9-DX69AZyZuQx-70" value="&lt;span style=&quot;color: rgb(0, 0, 0); font-family: Helvetica; font-size: 12px; font-style: normal; font-variant-ligatures: normal; font-variant-caps: normal; font-weight: 400; letter-spacing: normal; orphans: 2; text-align: center; text-indent: 0px; text-transform: none; widows: 2; word-spacing: 0px; -webkit-text-stroke-width: 0px; white-space: nowrap; background-color: rgb(251, 251, 251); text-decoration-thickness: initial; text-decoration-style: initial; text-decoration-color: initial; display: inline !important; float: none;&quot;&gt;Chat&lt;/span&gt;" style="text;whiteSpace=wrap;html=1;" vertex="1" parent="_GlBLlb9-DX69AZyZuQx-65">
          <mxGeometry x="73.48000000000002" y="-4" width="52" height="30" as="geometry" />
        </mxCell>
        <mxCell id="_GlBLlb9-DX69AZyZuQx-71" value="Felhasználó" style="ellipse;whiteSpace=wrap;html=1;" vertex="1" parent="1">
          <mxGeometry x="2055" y="3190" width="120" height="80" as="geometry" />
        </mxCell>
        <mxCell id="_GlBLlb9-DX69AZyZuQx-72" value="Látogató" style="ellipse;whiteSpace=wrap;html=1;" vertex="1" parent="1">
          <mxGeometry x="2055" y="3410" width="120" height="80" as="geometry" />
        </mxCell>
        <mxCell id="_GlBLlb9-DX69AZyZuQx-73" value="Adminisztrátor" style="ellipse;whiteSpace=wrap;html=1;" vertex="1" parent="1">
          <mxGeometry x="2055" y="3640" width="120" height="80" as="geometry" />
        </mxCell>
        <mxCell id="_GlBLlb9-DX69AZyZuQx-74" value="" style="endArrow=classic;html=1;rounded=0;exitX=1;exitY=0.5;exitDx=0;exitDy=0;entryX=0.5;entryY=0;entryDx=0;entryDy=0;" edge="1" parent="1" source="_GlBLlb9-DX69AZyZuQx-71" target="_GlBLlb9-DX69AZyZuQx-2">
          <mxGeometry width="50" height="50" relative="1" as="geometry">
            <mxPoint x="2365" y="3240" as="sourcePoint" />
            <mxPoint x="2415" y="3190" as="targetPoint" />
            <Array as="points">
              <mxPoint x="2407" y="3230" />
            </Array>
          </mxGeometry>
        </mxCell>
        <mxCell id="_GlBLlb9-DX69AZyZuQx-75" value="" style="endArrow=classic;html=1;rounded=0;exitX=1;exitY=0;exitDx=0;exitDy=0;entryX=-0.003;entryY=0.181;entryDx=0;entryDy=0;entryPerimeter=0;" edge="1" parent="1" source="_GlBLlb9-DX69AZyZuQx-72" target="_GlBLlb9-DX69AZyZuQx-2">
          <mxGeometry width="50" height="50" relative="1" as="geometry">
            <mxPoint x="2175" y="3430" as="sourcePoint" />
            <mxPoint x="2325" y="3430.003333333333" as="targetPoint" />
          </mxGeometry>
        </mxCell>
        <mxCell id="_GlBLlb9-DX69AZyZuQx-76" value="" style="endArrow=classic;html=1;rounded=0;exitX=1;exitY=0.5;exitDx=0;exitDy=0;entryX=0.5;entryY=1;entryDx=0;entryDy=0;" edge="1" parent="1" source="_GlBLlb9-DX69AZyZuQx-73" target="_GlBLlb9-DX69AZyZuQx-2">
          <mxGeometry width="50" height="50" relative="1" as="geometry">
            <mxPoint x="2275" y="3750" as="sourcePoint" />
            <mxPoint x="2325" y="3700" as="targetPoint" />
            <Array as="points">
              <mxPoint x="2405" y="3680" />
            </Array>
          </mxGeometry>
        </mxCell>
        <mxCell id="_GlBLlb9-DX69AZyZuQx-77" value="" style="group" vertex="1" connectable="0" parent="1">
          <mxGeometry x="2345" y="3160" width="157" height="30.000000000000057" as="geometry" />
        </mxCell>
        <mxCell id="_GlBLlb9-DX69AZyZuQx-78" value="&amp;nbsp;L1" style="html=1;dashed=0;whiteSpace=wrap;shape=mxgraph.dfd.dataStoreID;align=left;spacingLeft=3;points=[[0,0],[0.5,0],[1,0],[0,0.5],[1,0.5],[0,1],[0.5,1],[1,1]];" vertex="1" parent="_GlBLlb9-DX69AZyZuQx-77">
          <mxGeometry width="152" height="30" as="geometry" />
        </mxCell>
        <mxCell id="_GlBLlb9-DX69AZyZuQx-79" value="" style="endArrow=none;html=1;rounded=0;entryX=0.078;entryY=0.005;entryDx=0;entryDy=0;entryPerimeter=0;exitX=0.077;exitY=1.001;exitDx=0;exitDy=0;exitPerimeter=0;" edge="1" parent="_GlBLlb9-DX69AZyZuQx-77">
          <mxGeometry width="50" height="50" relative="1" as="geometry">
            <mxPoint x="4.699999999999932" y="30.000000000000057" as="sourcePoint" />
            <mxPoint x="4.7999999999999545" y="0.12000000000000455" as="targetPoint" />
          </mxGeometry>
        </mxCell>
        <mxCell id="_GlBLlb9-DX69AZyZuQx-80" value="Felhasználói adatok" style="text;html=1;align=center;verticalAlign=middle;resizable=0;points=[];autosize=1;strokeColor=none;fillColor=none;" vertex="1" parent="_GlBLlb9-DX69AZyZuQx-77">
          <mxGeometry x="27" width="130" height="30" as="geometry" />
        </mxCell>
        <mxCell id="_GlBLlb9-DX69AZyZuQx-81" value="Bejelentkezés" style="text;html=1;align=center;verticalAlign=middle;whiteSpace=wrap;rounded=0;" vertex="1" parent="1">
          <mxGeometry x="2255" y="3202" width="60" height="30" as="geometry" />
        </mxCell>
        <mxCell id="_GlBLlb9-DX69AZyZuQx-82" value="Bejelentkezés" style="text;html=1;align=center;verticalAlign=middle;whiteSpace=wrap;rounded=0;" vertex="1" parent="1">
          <mxGeometry x="2225" y="3650" width="60" height="30" as="geometry" />
        </mxCell>
        <mxCell id="_GlBLlb9-DX69AZyZuQx-83" value="Regisztráció" style="text;html=1;align=center;verticalAlign=middle;whiteSpace=wrap;rounded=0;" vertex="1" parent="1">
          <mxGeometry x="2205" y="3392" width="60" height="30" as="geometry" />
        </mxCell>
        <mxCell id="_GlBLlb9-DX69AZyZuQx-84" value="" style="endArrow=classic;html=1;rounded=0;exitX=0.36;exitY=-0.004;exitDx=0;exitDy=0;exitPerimeter=0;entryX=1;entryY=1;entryDx=0;entryDy=0;" edge="1" parent="1" source="_GlBLlb9-DX69AZyZuQx-2" target="_GlBLlb9-DX69AZyZuQx-71">
          <mxGeometry width="50" height="50" relative="1" as="geometry">
            <mxPoint x="2355" y="3390" as="sourcePoint" />
            <mxPoint x="2405" y="3340" as="targetPoint" />
            <Array as="points">
              <mxPoint x="2385" y="3258" />
            </Array>
          </mxGeometry>
        </mxCell>
        <mxCell id="_GlBLlb9-DX69AZyZuQx-85" value="Sikeres/Sikertelen bejelentkezés" style="text;html=1;align=center;verticalAlign=middle;whiteSpace=wrap;rounded=0;" vertex="1" parent="1">
          <mxGeometry x="2255" y="3260" width="60" height="30" as="geometry" />
        </mxCell>
        <mxCell id="_GlBLlb9-DX69AZyZuQx-86" value="Sikeres/Sikertelen bejelentkezés" style="text;html=1;align=center;verticalAlign=middle;whiteSpace=wrap;rounded=0;" vertex="1" parent="1">
          <mxGeometry x="2235" y="3720" width="60" height="30" as="geometry" />
        </mxCell>
        <mxCell id="_GlBLlb9-DX69AZyZuQx-87" value="" style="endArrow=classic;html=1;rounded=0;exitX=0.615;exitY=0.998;exitDx=0;exitDy=0;entryX=1;entryY=1;entryDx=0;entryDy=0;exitPerimeter=0;" edge="1" parent="1" source="_GlBLlb9-DX69AZyZuQx-2" target="_GlBLlb9-DX69AZyZuQx-73">
          <mxGeometry width="50" height="50" relative="1" as="geometry">
            <mxPoint x="2475" y="3560" as="sourcePoint" />
            <mxPoint x="2245" y="3690" as="targetPoint" />
            <Array as="points">
              <mxPoint x="2425" y="3710" />
            </Array>
          </mxGeometry>
        </mxCell>
        <mxCell id="_GlBLlb9-DX69AZyZuQx-88" value="" style="endArrow=classic;html=1;rounded=0;exitX=0;exitY=0.5;exitDx=0;exitDy=0;entryX=1;entryY=0.5;entryDx=0;entryDy=0;" edge="1" parent="1" source="_GlBLlb9-DX69AZyZuQx-2" target="_GlBLlb9-DX69AZyZuQx-72">
          <mxGeometry width="50" height="50" relative="1" as="geometry">
            <mxPoint x="2255" y="3560" as="sourcePoint" />
            <mxPoint x="2305" y="3510" as="targetPoint" />
          </mxGeometry>
        </mxCell>
        <mxCell id="_GlBLlb9-DX69AZyZuQx-89" value="Sikeres/Sikertelen regisztráció" style="text;html=1;align=center;verticalAlign=middle;whiteSpace=wrap;rounded=0;" vertex="1" parent="1">
          <mxGeometry x="2215" y="3452" width="60" height="30" as="geometry" />
        </mxCell>
        <mxCell id="_GlBLlb9-DX69AZyZuQx-90" value="" style="endArrow=classic;html=1;rounded=0;exitX=0.61;exitY=-0.005;exitDx=0;exitDy=0;entryX=0.25;entryY=1;entryDx=0;entryDy=0;exitPerimeter=0;" edge="1" parent="1" source="_GlBLlb9-DX69AZyZuQx-2" target="_GlBLlb9-DX69AZyZuQx-8">
          <mxGeometry width="50" height="50" relative="1" as="geometry">
            <mxPoint x="2525" y="3390" as="sourcePoint" />
            <mxPoint x="2445" y="3210" as="targetPoint" />
            <Array as="points">
              <mxPoint x="2425" y="3200" />
              <mxPoint x="2286" y="3200" />
            </Array>
          </mxGeometry>
        </mxCell>
        <mxCell id="_GlBLlb9-DX69AZyZuQx-91" value="" style="group" vertex="1" connectable="0" parent="1">
          <mxGeometry x="2600" y="3741" width="120" height="80" as="geometry" />
        </mxCell>
        <mxCell id="_GlBLlb9-DX69AZyZuQx-92" value="Adminisztrátor" style="ellipse;whiteSpace=wrap;html=1;" vertex="1" parent="_GlBLlb9-DX69AZyZuQx-91">
          <mxGeometry width="120" height="80" as="geometry" />
        </mxCell>
        <mxCell id="_GlBLlb9-DX69AZyZuQx-93" value="" style="endArrow=none;html=1;rounded=0;exitX=0.009;exitY=0.595;exitDx=0;exitDy=0;exitPerimeter=0;entryX=0.426;entryY=0.004;entryDx=0;entryDy=0;entryPerimeter=0;" edge="1" parent="_GlBLlb9-DX69AZyZuQx-91" source="_GlBLlb9-DX69AZyZuQx-92" target="_GlBLlb9-DX69AZyZuQx-92">
          <mxGeometry width="50" height="50" relative="1" as="geometry">
            <mxPoint y="50" as="sourcePoint" />
            <mxPoint x="50" as="targetPoint" />
          </mxGeometry>
        </mxCell>
        <mxCell id="_GlBLlb9-DX69AZyZuQx-94" value="" style="group" vertex="1" connectable="0" parent="1">
          <mxGeometry x="2440" y="3741" width="120" height="80" as="geometry" />
        </mxCell>
        <mxCell id="_GlBLlb9-DX69AZyZuQx-95" value="Felhasználó" style="ellipse;whiteSpace=wrap;html=1;" vertex="1" parent="_GlBLlb9-DX69AZyZuQx-94">
          <mxGeometry width="120" height="80" as="geometry" />
        </mxCell>
        <mxCell id="_GlBLlb9-DX69AZyZuQx-96" value="" style="endArrow=none;html=1;rounded=0;exitX=0.009;exitY=0.595;exitDx=0;exitDy=0;exitPerimeter=0;entryX=0.426;entryY=0.004;entryDx=0;entryDy=0;entryPerimeter=0;" edge="1" parent="_GlBLlb9-DX69AZyZuQx-94" source="_GlBLlb9-DX69AZyZuQx-95" target="_GlBLlb9-DX69AZyZuQx-95">
          <mxGeometry width="50" height="50" relative="1" as="geometry">
            <mxPoint y="50" as="sourcePoint" />
            <mxPoint x="50" as="targetPoint" />
          </mxGeometry>
        </mxCell>
        <mxCell id="_GlBLlb9-DX69AZyZuQx-97" value="" style="endArrow=classic;html=1;rounded=0;exitX=0.5;exitY=0;exitDx=0;exitDy=0;entryX=0.25;entryY=1;entryDx=0;entryDy=0;" edge="1" parent="1" source="_GlBLlb9-DX69AZyZuQx-95" target="_GlBLlb9-DX69AZyZuQx-14">
          <mxGeometry width="50" height="50" relative="1" as="geometry">
            <mxPoint x="2540" y="3734" as="sourcePoint" />
            <mxPoint x="2590" y="3684" as="targetPoint" />
            <Array as="points">
              <mxPoint x="2500" y="3704" />
              <mxPoint x="2531" y="3704" />
            </Array>
          </mxGeometry>
        </mxCell>
        <mxCell id="_GlBLlb9-DX69AZyZuQx-98" value="" style="endArrow=classic;html=1;rounded=0;exitX=0.5;exitY=0;exitDx=0;exitDy=0;entryX=0.75;entryY=1;entryDx=0;entryDy=0;" edge="1" parent="1" source="_GlBLlb9-DX69AZyZuQx-92" target="_GlBLlb9-DX69AZyZuQx-14">
          <mxGeometry width="50" height="50" relative="1" as="geometry">
            <mxPoint x="2590" y="3744" as="sourcePoint" />
            <mxPoint x="2640" y="3694" as="targetPoint" />
            <Array as="points">
              <mxPoint x="2660" y="3714" />
              <mxPoint x="2613" y="3714" />
            </Array>
          </mxGeometry>
        </mxCell>
        <mxCell id="_GlBLlb9-DX69AZyZuQx-99" value="" style="endArrow=classic;html=1;rounded=0;exitX=0.548;exitY=1.012;exitDx=0;exitDy=0;exitPerimeter=0;entryX=0.725;entryY=-0.006;entryDx=0;entryDy=0;entryPerimeter=0;" edge="1" parent="1" source="_GlBLlb9-DX69AZyZuQx-80" target="_GlBLlb9-DX69AZyZuQx-2">
          <mxGeometry width="50" height="50" relative="1" as="geometry">
            <mxPoint x="2455" y="3260" as="sourcePoint" />
            <mxPoint x="2505" y="3210" as="targetPoint" />
          </mxGeometry>
        </mxCell>
        <mxCell id="_GlBLlb9-DX69AZyZuQx-100" value="" style="endArrow=classic;html=1;rounded=0;exitX=1.002;exitY=0.735;exitDx=0;exitDy=0;entryX=0.562;entryY=-0.015;entryDx=0;entryDy=0;entryPerimeter=0;exitPerimeter=0;" edge="1" parent="1" source="_GlBLlb9-DX69AZyZuQx-8" target="_GlBLlb9-DX69AZyZuQx-80">
          <mxGeometry width="50" height="50" relative="1" as="geometry">
            <mxPoint x="2465" y="3130" as="sourcePoint" />
            <mxPoint x="2515" y="3080" as="targetPoint" />
            <Array as="points">
              <mxPoint x="2445" y="3120" />
            </Array>
          </mxGeometry>
        </mxCell>
        <mxCell id="_GlBLlb9-DX69AZyZuQx-101" value="" style="group" vertex="1" connectable="0" parent="1">
          <mxGeometry x="2245" y="2900" width="164" height="82" as="geometry" />
        </mxCell>
        <mxCell id="_GlBLlb9-DX69AZyZuQx-102" value="Profilkép módosítása" style="rounded=0;whiteSpace=wrap;html=1;" vertex="1" parent="_GlBLlb9-DX69AZyZuQx-101">
          <mxGeometry width="164" height="82" as="geometry" />
        </mxCell>
        <mxCell id="_GlBLlb9-DX69AZyZuQx-103" value="" style="endArrow=none;html=1;rounded=0;exitX=0;exitY=0.25;exitDx=0;exitDy=0;entryX=1;entryY=0.25;entryDx=0;entryDy=0;" edge="1" parent="_GlBLlb9-DX69AZyZuQx-101" source="_GlBLlb9-DX69AZyZuQx-102" target="_GlBLlb9-DX69AZyZuQx-102">
          <mxGeometry width="50" height="50" relative="1" as="geometry">
            <mxPoint x="54.66666666666667" y="68.33333333333333" as="sourcePoint" />
            <mxPoint x="123" as="targetPoint" />
          </mxGeometry>
        </mxCell>
        <mxCell id="_GlBLlb9-DX69AZyZuQx-104" value="" style="endArrow=none;html=1;rounded=0;exitX=0.25;exitY=0;exitDx=0;exitDy=0;" edge="1" parent="_GlBLlb9-DX69AZyZuQx-101" source="_GlBLlb9-DX69AZyZuQx-102">
          <mxGeometry width="50" height="50" relative="1" as="geometry">
            <mxPoint x="41" y="-6.833333333333334" as="sourcePoint" />
            <mxPoint x="41" y="20.5" as="targetPoint" />
          </mxGeometry>
        </mxCell>
        <mxCell id="_GlBLlb9-DX69AZyZuQx-105" value="&lt;font style=&quot;font-size: 11px;&quot;&gt;4&lt;/font&gt;" style="text;html=1;align=center;verticalAlign=middle;resizable=0;points=[];autosize=1;strokeColor=none;fillColor=none;" vertex="1" parent="_GlBLlb9-DX69AZyZuQx-101">
          <mxGeometry x="10" y="-4" width="26" height="28" as="geometry" />
        </mxCell>
        <mxCell id="_GlBLlb9-DX69AZyZuQx-106" value="Profil oldal" style="text;html=1;align=center;verticalAlign=middle;resizable=0;points=[];autosize=1;strokeColor=none;fillColor=none;" vertex="1" parent="_GlBLlb9-DX69AZyZuQx-101">
          <mxGeometry x="56" y="-2" width="76" height="28" as="geometry" />
        </mxCell>
        <mxCell id="_GlBLlb9-DX69AZyZuQx-107" value="" style="endArrow=classic;html=1;rounded=0;exitX=0.5;exitY=0;exitDx=0;exitDy=0;" edge="1" parent="1" source="_GlBLlb9-DX69AZyZuQx-8">
          <mxGeometry width="50" height="50" relative="1" as="geometry">
            <mxPoint x="2565" y="3000" as="sourcePoint" />
            <mxPoint x="2327" y="2980" as="targetPoint" />
          </mxGeometry>
        </mxCell>
        <mxCell id="_GlBLlb9-DX69AZyZuQx-108" value="" style="endArrow=classic;html=1;rounded=0;exitX=1;exitY=0.5;exitDx=0;exitDy=0;" edge="1" parent="1" source="_GlBLlb9-DX69AZyZuQx-102">
          <mxGeometry width="50" height="50" relative="1" as="geometry">
            <mxPoint x="2435" y="2941" as="sourcePoint" />
            <mxPoint x="2462.871794871795" y="3160" as="targetPoint" />
            <Array as="points">
              <mxPoint x="2461" y="2941" />
            </Array>
          </mxGeometry>
        </mxCell>
        <mxCell id="_GlBLlb9-DX69AZyZuQx-109" value="" style="endArrow=classic;html=1;rounded=0;entryX=0.227;entryY=1.004;entryDx=0;entryDy=0;exitX=1;exitY=0.059;exitDx=0;exitDy=0;exitPerimeter=0;entryPerimeter=0;" edge="1" parent="1" source="_GlBLlb9-DX69AZyZuQx-2" target="_GlBLlb9-DX69AZyZuQx-19">
          <mxGeometry width="50" height="50" relative="1" as="geometry">
            <mxPoint x="2535" y="3370" as="sourcePoint" />
            <mxPoint x="2585" y="3320" as="targetPoint" />
            <Array as="points">
              <mxPoint x="2525" y="3413" />
            </Array>
          </mxGeometry>
        </mxCell>
        <mxCell id="_GlBLlb9-DX69AZyZuQx-110" value="&lt;span style=&quot;text-wrap: wrap;&quot;&gt;megtekintés/készítés/törlés&lt;/span&gt;" style="text;html=1;align=center;verticalAlign=middle;resizable=0;points=[];autosize=1;strokeColor=none;fillColor=none;rotation=-90;" vertex="1" parent="1">
          <mxGeometry x="2425" y="3286" width="170" height="30" as="geometry" />
        </mxCell>
        <mxCell id="_GlBLlb9-DX69AZyZuQx-111" value="" style="group" vertex="1" connectable="0" parent="1">
          <mxGeometry x="2484" y="2780" width="157" height="30.000000000000057" as="geometry" />
        </mxCell>
        <mxCell id="_GlBLlb9-DX69AZyZuQx-112" value="&amp;nbsp;L2" style="html=1;dashed=0;whiteSpace=wrap;shape=mxgraph.dfd.dataStoreID;align=left;spacingLeft=3;points=[[0,0],[0.5,0],[1,0],[0,0.5],[1,0.5],[0,1],[0.5,1],[1,1]];" vertex="1" parent="_GlBLlb9-DX69AZyZuQx-111">
          <mxGeometry width="152" height="30" as="geometry" />
        </mxCell>
        <mxCell id="_GlBLlb9-DX69AZyZuQx-113" value="" style="endArrow=none;html=1;rounded=0;entryX=0.078;entryY=0.005;entryDx=0;entryDy=0;entryPerimeter=0;exitX=0.077;exitY=1.001;exitDx=0;exitDy=0;exitPerimeter=0;" edge="1" parent="_GlBLlb9-DX69AZyZuQx-111">
          <mxGeometry width="50" height="50" relative="1" as="geometry">
            <mxPoint x="4.699999999999932" y="30.000000000000057" as="sourcePoint" />
            <mxPoint x="4.7999999999999545" y="0.12000000000000455" as="targetPoint" />
          </mxGeometry>
        </mxCell>
        <mxCell id="_GlBLlb9-DX69AZyZuQx-114" value="Posztok" style="text;html=1;align=center;verticalAlign=middle;resizable=0;points=[];autosize=1;strokeColor=none;fillColor=none;" vertex="1" parent="_GlBLlb9-DX69AZyZuQx-111">
          <mxGeometry x="57" width="70" height="30" as="geometry" />
        </mxCell>
        <mxCell id="_GlBLlb9-DX69AZyZuQx-115" value="" style="group" vertex="1" connectable="0" parent="1">
          <mxGeometry x="2725" y="2730" width="157" height="30.000000000000057" as="geometry" />
        </mxCell>
        <mxCell id="_GlBLlb9-DX69AZyZuQx-116" value="&amp;nbsp;L3" style="html=1;dashed=0;whiteSpace=wrap;shape=mxgraph.dfd.dataStoreID;align=left;spacingLeft=3;points=[[0,0],[0.5,0],[1,0],[0,0.5],[1,0.5],[0,1],[0.5,1],[1,1]];" vertex="1" parent="_GlBLlb9-DX69AZyZuQx-115">
          <mxGeometry width="152" height="30" as="geometry" />
        </mxCell>
        <mxCell id="_GlBLlb9-DX69AZyZuQx-117" value="" style="endArrow=none;html=1;rounded=0;entryX=0.078;entryY=0.005;entryDx=0;entryDy=0;entryPerimeter=0;exitX=0.077;exitY=1.001;exitDx=0;exitDy=0;exitPerimeter=0;" edge="1" parent="_GlBLlb9-DX69AZyZuQx-115">
          <mxGeometry width="50" height="50" relative="1" as="geometry">
            <mxPoint x="4.699999999999932" y="30.000000000000057" as="sourcePoint" />
            <mxPoint x="4.7999999999999545" y="0.12000000000000455" as="targetPoint" />
          </mxGeometry>
        </mxCell>
        <mxCell id="_GlBLlb9-DX69AZyZuQx-118" value="Hozzászólások" style="text;html=1;align=center;verticalAlign=middle;resizable=0;points=[];autosize=1;strokeColor=none;fillColor=none;" vertex="1" parent="_GlBLlb9-DX69AZyZuQx-115">
          <mxGeometry x="42" y="1" width="100" height="28" as="geometry" />
        </mxCell>
        <mxCell id="_GlBLlb9-DX69AZyZuQx-119" value="" style="endArrow=classic;html=1;rounded=0;exitX=1.009;exitY=0.155;exitDx=0;exitDy=0;entryX=0.527;entryY=1.005;entryDx=0;entryDy=0;exitPerimeter=0;entryPerimeter=0;" edge="1" parent="1" target="_GlBLlb9-DX69AZyZuQx-66">
          <mxGeometry width="50" height="50" relative="1" as="geometry">
            <mxPoint x="2488.996" y="3436.713333333333" as="sourcePoint" />
            <mxPoint x="2643.5199999999995" y="3446" as="targetPoint" />
            <Array as="points">
              <mxPoint x="2643.5199999999995" y="3436" />
              <mxPoint x="2644" y="3226" />
              <mxPoint x="2880" y="3226" />
            </Array>
          </mxGeometry>
        </mxCell>
        <mxCell id="_GlBLlb9-DX69AZyZuQx-120" value="" style="group" vertex="1" connectable="0" parent="1">
          <mxGeometry x="2868" y="3268" width="120" height="80" as="geometry" />
        </mxCell>
        <mxCell id="_GlBLlb9-DX69AZyZuQx-121" value="Felhasználó" style="ellipse;whiteSpace=wrap;html=1;" vertex="1" parent="_GlBLlb9-DX69AZyZuQx-120">
          <mxGeometry width="120" height="80" as="geometry" />
        </mxCell>
        <mxCell id="_GlBLlb9-DX69AZyZuQx-122" value="" style="endArrow=none;html=1;rounded=0;exitX=0.009;exitY=0.595;exitDx=0;exitDy=0;exitPerimeter=0;entryX=0.426;entryY=0.004;entryDx=0;entryDy=0;entryPerimeter=0;" edge="1" parent="_GlBLlb9-DX69AZyZuQx-120" source="_GlBLlb9-DX69AZyZuQx-121" target="_GlBLlb9-DX69AZyZuQx-121">
          <mxGeometry width="50" height="50" relative="1" as="geometry">
            <mxPoint y="50" as="sourcePoint" />
            <mxPoint x="50" as="targetPoint" />
          </mxGeometry>
        </mxCell>
        <mxCell id="_GlBLlb9-DX69AZyZuQx-123" value="" style="endArrow=classic;html=1;rounded=0;exitX=0.75;exitY=1;exitDx=0;exitDy=0;entryX=0;entryY=0;entryDx=0;entryDy=0;" edge="1" parent="1" source="_GlBLlb9-DX69AZyZuQx-66" target="_GlBLlb9-DX69AZyZuQx-121">
          <mxGeometry width="50" height="50" relative="1" as="geometry">
            <mxPoint x="2721" y="3238.5" as="sourcePoint" />
            <mxPoint x="2935.4800000000005" y="3188.5" as="targetPoint" />
            <Array as="points">
              <mxPoint x="2917" y="3236.5" />
              <mxPoint x="2886" y="3236.5" />
            </Array>
          </mxGeometry>
        </mxCell>
        <mxCell id="_GlBLlb9-DX69AZyZuQx-124" value="" style="endArrow=classic;html=1;rounded=0;exitX=1;exitY=0.5;exitDx=0;exitDy=0;" edge="1" parent="1" source="_GlBLlb9-DX69AZyZuQx-2">
          <mxGeometry width="50" height="50" relative="1" as="geometry">
            <mxPoint x="2555" y="3540" as="sourcePoint" />
            <mxPoint x="2820" y="3448" as="targetPoint" />
          </mxGeometry>
        </mxCell>
        <mxCell id="_GlBLlb9-DX69AZyZuQx-125" value="" style="endArrow=classic;html=1;rounded=0;exitX=1;exitY=0.25;exitDx=0;exitDy=0;entryX=0;entryY=0.5;entryDx=0;entryDy=0;" edge="1" parent="1" target="_GlBLlb9-DX69AZyZuQx-127">
          <mxGeometry width="50" height="50" relative="1" as="geometry">
            <mxPoint x="2985" y="3414" as="sourcePoint" />
            <mxPoint x="3111" y="3413.5" as="targetPoint" />
          </mxGeometry>
        </mxCell>
        <mxCell id="_GlBLlb9-DX69AZyZuQx-126" value="" style="group" vertex="1" connectable="0" parent="1">
          <mxGeometry x="3115" y="3398.5" width="157" height="30.000000000000057" as="geometry" />
        </mxCell>
        <mxCell id="_GlBLlb9-DX69AZyZuQx-127" value="&amp;nbsp;L4" style="html=1;dashed=0;whiteSpace=wrap;shape=mxgraph.dfd.dataStoreID;align=left;spacingLeft=3;points=[[0,0],[0.5,0],[1,0],[0,0.5],[1,0.5],[0,1],[0.5,1],[1,1]];" vertex="1" parent="_GlBLlb9-DX69AZyZuQx-126">
          <mxGeometry width="152" height="30" as="geometry" />
        </mxCell>
        <mxCell id="_GlBLlb9-DX69AZyZuQx-128" value="" style="endArrow=none;html=1;rounded=0;entryX=0.078;entryY=0.005;entryDx=0;entryDy=0;entryPerimeter=0;exitX=0.077;exitY=1.001;exitDx=0;exitDy=0;exitPerimeter=0;" edge="1" parent="_GlBLlb9-DX69AZyZuQx-126">
          <mxGeometry width="50" height="50" relative="1" as="geometry">
            <mxPoint x="4.699999999999932" y="30.000000000000057" as="sourcePoint" />
            <mxPoint x="4.7999999999999545" y="0.12000000000000455" as="targetPoint" />
          </mxGeometry>
        </mxCell>
        <mxCell id="_GlBLlb9-DX69AZyZuQx-129" value="Képek" style="text;html=1;align=center;verticalAlign=middle;resizable=0;points=[];autosize=1;strokeColor=none;fillColor=none;" vertex="1" parent="_GlBLlb9-DX69AZyZuQx-126">
          <mxGeometry x="62" width="60" height="30" as="geometry" />
        </mxCell>
        <mxCell id="_GlBLlb9-DX69AZyZuQx-130" value="" style="endArrow=classic;html=1;rounded=0;exitX=1;exitY=0.75;exitDx=0;exitDy=0;entryX=-0.006;entryY=0.619;entryDx=0;entryDy=0;entryPerimeter=0;" edge="1" parent="1" source="_GlBLlb9-DX69AZyZuQx-2" target="_GlBLlb9-DX69AZyZuQx-49">
          <mxGeometry width="50" height="50" relative="1" as="geometry">
            <mxPoint x="2625" y="3530" as="sourcePoint" />
            <mxPoint x="2715" y="3560" as="targetPoint" />
            <Array as="points">
              <mxPoint x="2605" y="3470" />
              <mxPoint x="2605" y="3560" />
            </Array>
          </mxGeometry>
        </mxCell>
        <mxCell id="_GlBLlb9-DX69AZyZuQx-131" value="&lt;span style=&quot;text-align: center;&quot;&gt;feltöltés/letörlés&lt;/span&gt;" style="text;whiteSpace=wrap;html=1;" vertex="1" parent="1">
          <mxGeometry x="2672" y="3424" width="120" height="40" as="geometry" />
        </mxCell>
        <mxCell id="_GlBLlb9-DX69AZyZuQx-132" value="&lt;span style=&quot;color: rgb(0, 0, 0); font-family: Helvetica; font-size: 12px; font-style: normal; font-variant-ligatures: normal; font-variant-caps: normal; font-weight: 400; letter-spacing: normal; orphans: 2; text-align: center; text-indent: 0px; text-transform: none; widows: 2; word-spacing: 0px; -webkit-text-stroke-width: 0px; white-space: normal; background-color: rgb(251, 251, 251); text-decoration-thickness: initial; text-decoration-style: initial; text-decoration-color: initial; display: inline !important; float: none;&quot;&gt;létrehozás/törlés&lt;/span&gt;" style="text;whiteSpace=wrap;html=1;rotation=0;" vertex="1" parent="1">
          <mxGeometry x="2714" y="3530" width="120" height="40" as="geometry" />
        </mxCell>
        <mxCell id="_GlBLlb9-DX69AZyZuQx-133" value="&lt;span style=&quot;color: rgb(0, 0, 0); font-family: Helvetica; font-size: 12px; font-style: normal; font-variant-ligatures: normal; font-variant-caps: normal; font-weight: 400; letter-spacing: normal; orphans: 2; text-align: center; text-indent: 0px; text-transform: none; widows: 2; word-spacing: 0px; -webkit-text-stroke-width: 0px; white-space: normal; background-color: rgb(251, 251, 251); text-decoration-thickness: initial; text-decoration-style: initial; text-decoration-color: initial; display: inline !important; float: none;&quot;&gt;létrehozás/törlés&lt;/span&gt;" style="text;whiteSpace=wrap;html=1;rotation=-90;" vertex="1" parent="1">
          <mxGeometry x="2522" y="3242" width="120" height="40" as="geometry" />
        </mxCell>
        <mxCell id="_GlBLlb9-DX69AZyZuQx-134" value="" style="endArrow=classic;html=1;rounded=0;exitX=0.25;exitY=1;exitDx=0;exitDy=0;entryX=1;entryY=0.5;entryDx=0;entryDy=0;" edge="1" parent="1" source="_GlBLlb9-DX69AZyZuQx-2" target="_GlBLlb9-DX69AZyZuQx-61">
          <mxGeometry width="50" height="50" relative="1" as="geometry">
            <mxPoint x="2275" y="3590" as="sourcePoint" />
            <mxPoint x="2325" y="3540" as="targetPoint" />
            <Array as="points">
              <mxPoint x="2366" y="3560" />
            </Array>
          </mxGeometry>
        </mxCell>
        <mxCell id="_GlBLlb9-DX69AZyZuQx-135" value="" style="endArrow=classic;html=1;rounded=0;exitX=0.25;exitY=1;exitDx=0;exitDy=0;entryX=0.5;entryY=0;entryDx=0;entryDy=0;" edge="1" parent="1" source="_GlBLlb9-DX69AZyZuQx-61" target="_GlBLlb9-DX69AZyZuQx-137">
          <mxGeometry width="50" height="50" relative="1" as="geometry">
            <mxPoint x="1915" y="3690" as="sourcePoint" />
            <mxPoint x="1987" y="3660" as="targetPoint" />
          </mxGeometry>
        </mxCell>
        <mxCell id="_GlBLlb9-DX69AZyZuQx-136" value="" style="group" vertex="1" connectable="0" parent="1">
          <mxGeometry x="1885" y="3670" width="120" height="80" as="geometry" />
        </mxCell>
        <mxCell id="_GlBLlb9-DX69AZyZuQx-137" value="Felhasználó" style="ellipse;whiteSpace=wrap;html=1;" vertex="1" parent="_GlBLlb9-DX69AZyZuQx-136">
          <mxGeometry width="120" height="80" as="geometry" />
        </mxCell>
        <mxCell id="_GlBLlb9-DX69AZyZuQx-138" value="" style="endArrow=none;html=1;rounded=0;exitX=0.009;exitY=0.595;exitDx=0;exitDy=0;exitPerimeter=0;entryX=0.426;entryY=0.004;entryDx=0;entryDy=0;entryPerimeter=0;" edge="1" parent="_GlBLlb9-DX69AZyZuQx-136" source="_GlBLlb9-DX69AZyZuQx-137" target="_GlBLlb9-DX69AZyZuQx-137">
          <mxGeometry width="50" height="50" relative="1" as="geometry">
            <mxPoint y="50" as="sourcePoint" />
            <mxPoint x="50" as="targetPoint" />
          </mxGeometry>
        </mxCell>
        <mxCell id="_GlBLlb9-DX69AZyZuQx-139" value="" style="endArrow=classic;html=1;rounded=0;entryX=0.5;entryY=0;entryDx=0;entryDy=0;" edge="1" parent="1" target="_GlBLlb9-DX69AZyZuQx-121">
          <mxGeometry width="50" height="50" relative="1" as="geometry">
            <mxPoint x="3068" y="3165" as="sourcePoint" />
            <mxPoint x="3031" y="3138.5" as="targetPoint" />
            <Array as="points">
              <mxPoint x="3068" y="3234.5" />
              <mxPoint x="2972" y="3234.5" />
              <mxPoint x="2928" y="3234.5" />
            </Array>
          </mxGeometry>
        </mxCell>
        <mxCell id="_GlBLlb9-DX69AZyZuQx-140" value="" style="group" vertex="1" connectable="0" parent="1">
          <mxGeometry x="3021" y="3338.5" width="157" height="30.000000000000057" as="geometry" />
        </mxCell>
        <mxCell id="_GlBLlb9-DX69AZyZuQx-141" value="&amp;nbsp;L5" style="html=1;dashed=0;whiteSpace=wrap;shape=mxgraph.dfd.dataStoreID;align=left;spacingLeft=3;points=[[0,0],[0.5,0],[1,0],[0,0.5],[1,0.5],[0,1],[0.5,1],[1,1]];" vertex="1" parent="_GlBLlb9-DX69AZyZuQx-140">
          <mxGeometry width="152" height="30" as="geometry" />
        </mxCell>
        <mxCell id="_GlBLlb9-DX69AZyZuQx-142" value="" style="endArrow=none;html=1;rounded=0;entryX=0.078;entryY=0.005;entryDx=0;entryDy=0;entryPerimeter=0;exitX=0.077;exitY=1.001;exitDx=0;exitDy=0;exitPerimeter=0;" edge="1" parent="_GlBLlb9-DX69AZyZuQx-140">
          <mxGeometry width="50" height="50" relative="1" as="geometry">
            <mxPoint x="4.699999999999932" y="30.000000000000057" as="sourcePoint" />
            <mxPoint x="4.7999999999999545" y="0.12000000000000455" as="targetPoint" />
          </mxGeometry>
        </mxCell>
        <mxCell id="_GlBLlb9-DX69AZyZuQx-143" value="Értesítések" style="text;html=1;align=center;verticalAlign=middle;resizable=0;points=[];autosize=1;strokeColor=none;fillColor=none;" vertex="1" parent="_GlBLlb9-DX69AZyZuQx-140">
          <mxGeometry x="52" width="80" height="30" as="geometry" />
        </mxCell>
        <mxCell id="_GlBLlb9-DX69AZyZuQx-144" value="" style="group" vertex="1" connectable="0" parent="1">
          <mxGeometry x="2828" y="3640" width="157" height="30.000000000000057" as="geometry" />
        </mxCell>
        <mxCell id="_GlBLlb9-DX69AZyZuQx-145" value="&amp;nbsp;L6" style="html=1;dashed=0;whiteSpace=wrap;shape=mxgraph.dfd.dataStoreID;align=left;spacingLeft=3;points=[[0,0],[0.5,0],[1,0],[0,0.5],[1,0.5],[0,1],[0.5,1],[1,1]];" vertex="1" parent="_GlBLlb9-DX69AZyZuQx-144">
          <mxGeometry width="152" height="30" as="geometry" />
        </mxCell>
        <mxCell id="_GlBLlb9-DX69AZyZuQx-146" value="" style="endArrow=none;html=1;rounded=0;entryX=0.078;entryY=0.005;entryDx=0;entryDy=0;entryPerimeter=0;exitX=0.077;exitY=1.001;exitDx=0;exitDy=0;exitPerimeter=0;" edge="1" parent="_GlBLlb9-DX69AZyZuQx-144">
          <mxGeometry width="50" height="50" relative="1" as="geometry">
            <mxPoint x="4.699999999999932" y="30.000000000000057" as="sourcePoint" />
            <mxPoint x="4.7999999999999545" y="0.12000000000000455" as="targetPoint" />
          </mxGeometry>
        </mxCell>
        <mxCell id="_GlBLlb9-DX69AZyZuQx-147" value="Albumok" style="text;html=1;align=center;verticalAlign=middle;resizable=0;points=[];autosize=1;strokeColor=none;fillColor=none;" vertex="1" parent="_GlBLlb9-DX69AZyZuQx-144">
          <mxGeometry x="59" y="2" width="66" height="27" as="geometry" />
        </mxCell>
        <mxCell id="_GlBLlb9-DX69AZyZuQx-148" value="" style="endArrow=classic;html=1;rounded=0;exitX=0.5;exitY=1;exitDx=0;exitDy=0;entryX=0.5;entryY=0;entryDx=0;entryDy=0;" edge="1" parent="1" source="_GlBLlb9-DX69AZyZuQx-49" target="_GlBLlb9-DX69AZyZuQx-145">
          <mxGeometry width="50" height="50" relative="1" as="geometry">
            <mxPoint x="3039" y="3645.5" as="sourcePoint" />
            <mxPoint x="3089" y="3595.5" as="targetPoint" />
          </mxGeometry>
        </mxCell>
        <mxCell id="_GlBLlb9-DX69AZyZuQx-149" value="" style="group" vertex="1" connectable="0" parent="1">
          <mxGeometry x="2698" y="3316" width="157" height="30.000000000000057" as="geometry" />
        </mxCell>
        <mxCell id="_GlBLlb9-DX69AZyZuQx-150" value="&amp;nbsp;L7" style="html=1;dashed=0;whiteSpace=wrap;shape=mxgraph.dfd.dataStoreID;align=left;spacingLeft=3;points=[[0,0],[0.5,0],[1,0],[0,0.5],[1,0.5],[0,1],[0.5,1],[1,1]];" vertex="1" parent="_GlBLlb9-DX69AZyZuQx-149">
          <mxGeometry width="152" height="30" as="geometry" />
        </mxCell>
        <mxCell id="_GlBLlb9-DX69AZyZuQx-151" value="" style="endArrow=none;html=1;rounded=0;entryX=0.078;entryY=0.005;entryDx=0;entryDy=0;entryPerimeter=0;exitX=0.077;exitY=1.001;exitDx=0;exitDy=0;exitPerimeter=0;" edge="1" parent="_GlBLlb9-DX69AZyZuQx-149">
          <mxGeometry width="50" height="50" relative="1" as="geometry">
            <mxPoint x="4.699999999999932" y="30.000000000000057" as="sourcePoint" />
            <mxPoint x="4.7999999999999545" y="0.12000000000000455" as="targetPoint" />
          </mxGeometry>
        </mxCell>
        <mxCell id="_GlBLlb9-DX69AZyZuQx-152" value="Csoportok" style="text;html=1;align=center;verticalAlign=middle;resizable=0;points=[];autosize=1;strokeColor=none;fillColor=none;" vertex="1" parent="_GlBLlb9-DX69AZyZuQx-149">
          <mxGeometry x="55" y="2" width="74" height="27" as="geometry" />
        </mxCell>
        <mxCell id="_GlBLlb9-DX69AZyZuQx-153" value="" style="endArrow=classic;html=1;rounded=0;entryX=0;entryY=0.5;entryDx=0;entryDy=0;" edge="1" parent="1" target="_GlBLlb9-DX69AZyZuQx-150">
          <mxGeometry width="50" height="50" relative="1" as="geometry">
            <mxPoint x="2668" y="3172" as="sourcePoint" />
            <mxPoint x="2916" y="3610" as="targetPoint" />
            <Array as="points">
              <mxPoint x="2668" y="3331" />
            </Array>
          </mxGeometry>
        </mxCell>
        <mxCell id="_GlBLlb9-DX69AZyZuQx-154" value="" style="endArrow=classic;html=1;rounded=0;exitX=1;exitY=0.5;exitDx=0;exitDy=0;entryX=0.5;entryY=1;entryDx=0;entryDy=0;" edge="1" parent="1" source="_GlBLlb9-DX69AZyZuQx-19" target="_GlBLlb9-DX69AZyZuQx-25">
          <mxGeometry width="50" height="50" relative="1" as="geometry">
            <mxPoint x="2705" y="2974" as="sourcePoint" />
            <mxPoint x="2755" y="2924" as="targetPoint" />
            <Array as="points">
              <mxPoint x="2807" y="2951" />
            </Array>
          </mxGeometry>
        </mxCell>
        <mxCell id="_GlBLlb9-DX69AZyZuQx-155" value="" style="endArrow=classic;html=1;rounded=0;exitX=0.5;exitY=0;exitDx=0;exitDy=0;" edge="1" parent="1">
          <mxGeometry width="50" height="50" relative="1" as="geometry">
            <mxPoint x="1942" y="3520" as="sourcePoint" />
            <mxPoint x="1942" y="3442" as="targetPoint" />
          </mxGeometry>
        </mxCell>
        <mxCell id="_GlBLlb9-DX69AZyZuQx-156" value="" style="group" vertex="1" connectable="0" parent="1">
          <mxGeometry x="1880" y="3412" width="157" height="30.000000000000057" as="geometry" />
        </mxCell>
        <mxCell id="_GlBLlb9-DX69AZyZuQx-157" value="&amp;nbsp;L8" style="html=1;dashed=0;whiteSpace=wrap;shape=mxgraph.dfd.dataStoreID;align=left;spacingLeft=3;points=[[0,0],[0.5,0],[1,0],[0,0.5],[1,0.5],[0,1],[0.5,1],[1,1]];" vertex="1" parent="_GlBLlb9-DX69AZyZuQx-156">
          <mxGeometry width="152" height="30" as="geometry" />
        </mxCell>
        <mxCell id="_GlBLlb9-DX69AZyZuQx-158" value="" style="endArrow=none;html=1;rounded=0;entryX=0.078;entryY=0.005;entryDx=0;entryDy=0;entryPerimeter=0;exitX=0.077;exitY=1.001;exitDx=0;exitDy=0;exitPerimeter=0;" edge="1" parent="_GlBLlb9-DX69AZyZuQx-156">
          <mxGeometry width="50" height="50" relative="1" as="geometry">
            <mxPoint x="4.699999999999932" y="30.000000000000057" as="sourcePoint" />
            <mxPoint x="4.7999999999999545" y="0.12000000000000455" as="targetPoint" />
          </mxGeometry>
        </mxCell>
        <mxCell id="_GlBLlb9-DX69AZyZuQx-159" value="Ismerősök" style="text;html=1;align=center;verticalAlign=middle;resizable=0;points=[];autosize=1;strokeColor=none;fillColor=none;" vertex="1" parent="_GlBLlb9-DX69AZyZuQx-156">
          <mxGeometry x="55" y="2" width="74" height="27" as="geometry" />
        </mxCell>
        <mxCell id="_GlBLlb9-DX69AZyZuQx-160" value="" style="group" vertex="1" connectable="0" parent="1">
          <mxGeometry x="2702" y="3244" width="157" height="30.000000000000057" as="geometry" />
        </mxCell>
        <mxCell id="_GlBLlb9-DX69AZyZuQx-161" value="&amp;nbsp;L8" style="html=1;dashed=0;whiteSpace=wrap;shape=mxgraph.dfd.dataStoreID;align=left;spacingLeft=3;points=[[0,0],[0.5,0],[1,0],[0,0.5],[1,0.5],[0,1],[0.5,1],[1,1]];" vertex="1" parent="_GlBLlb9-DX69AZyZuQx-160">
          <mxGeometry width="152" height="30" as="geometry" />
        </mxCell>
        <mxCell id="_GlBLlb9-DX69AZyZuQx-162" value="" style="endArrow=none;html=1;rounded=0;entryX=0.078;entryY=0.005;entryDx=0;entryDy=0;entryPerimeter=0;exitX=0.077;exitY=1.001;exitDx=0;exitDy=0;exitPerimeter=0;" edge="1" parent="_GlBLlb9-DX69AZyZuQx-160">
          <mxGeometry width="50" height="50" relative="1" as="geometry">
            <mxPoint x="4.699999999999932" y="30.000000000000057" as="sourcePoint" />
            <mxPoint x="4.7999999999999545" y="0.12000000000000455" as="targetPoint" />
          </mxGeometry>
        </mxCell>
        <mxCell id="_GlBLlb9-DX69AZyZuQx-163" value="Üzenetek" style="text;html=1;align=center;verticalAlign=middle;resizable=0;points=[];autosize=1;strokeColor=none;fillColor=none;" vertex="1" parent="_GlBLlb9-DX69AZyZuQx-160">
          <mxGeometry x="57" y="2" width="70" height="27" as="geometry" />
        </mxCell>
        <mxCell id="_GlBLlb9-DX69AZyZuQx-164" value="" style="endArrow=classic;startArrow=classic;html=1;rounded=0;exitX=0.75;exitY=1;exitDx=0;exitDy=0;entryX=0;entryY=0.5;entryDx=0;entryDy=0;" edge="1" parent="1" source="_GlBLlb9-DX69AZyZuQx-19" target="_GlBLlb9-DX69AZyZuQx-31">
          <mxGeometry width="50" height="50" relative="1" as="geometry">
            <mxPoint x="2718" y="2980.5" as="sourcePoint" />
            <mxPoint x="2767" y="3009.5" as="targetPoint" />
            <Array as="points">
              <mxPoint x="2612" y="3024" />
            </Array>
          </mxGeometry>
        </mxCell>
        <mxCell id="_GlBLlb9-DX69AZyZuQx-165" value="" style="endArrow=classic;html=1;rounded=0;exitX=0.5;exitY=0;exitDx=0;exitDy=0;entryX=0.998;entryY=0.615;entryDx=0;entryDy=0;entryPerimeter=0;" edge="1" parent="1" source="_GlBLlb9-DX69AZyZuQx-127" target="_GlBLlb9-DX69AZyZuQx-19">
          <mxGeometry width="50" height="50" relative="1" as="geometry">
            <mxPoint x="3198" y="3305.5" as="sourcePoint" />
            <mxPoint x="2759" y="2960" as="targetPoint" />
            <Array as="points">
              <mxPoint x="3192" y="2960.5" />
            </Array>
          </mxGeometry>
        </mxCell>
        <mxCell id="_GlBLlb9-DX69AZyZuQx-166" value="&lt;span style=&quot;text-wrap: wrap;&quot;&gt;&amp;nbsp;jelölés/megtekintés/törlés&lt;/span&gt;" style="text;html=1;align=center;verticalAlign=middle;resizable=0;points=[];autosize=1;strokeColor=none;fillColor=none;" vertex="1" parent="1">
          <mxGeometry x="2129" y="3534" width="158" height="28" as="geometry" />
        </mxCell>
        <mxCell id="_GlBLlb9-DX69AZyZuQx-167" value="&lt;span style=&quot;text-wrap: wrap;&quot;&gt;küldés&lt;/span&gt;" style="text;html=1;align=center;verticalAlign=middle;resizable=0;points=[];autosize=1;strokeColor=none;fillColor=none;" vertex="1" parent="1">
          <mxGeometry x="2982" y="3230.5" width="54" height="28" as="geometry" />
        </mxCell>
        <mxCell id="_GlBLlb9-DX69AZyZuQx-168" value="&lt;span style=&quot;color: rgb(0, 0, 0); font-family: Helvetica; font-size: 12px; font-style: normal; font-variant-ligatures: normal; font-variant-caps: normal; font-weight: 400; letter-spacing: normal; orphans: 2; text-align: center; text-indent: 0px; text-transform: none; widows: 2; word-spacing: 0px; -webkit-text-stroke-width: 0px; white-space: normal; background-color: rgb(251, 251, 251); text-decoration-thickness: initial; text-decoration-style: initial; text-decoration-color: initial; display: inline !important; float: none;&quot;&gt;küldés&lt;/span&gt;" style="text;whiteSpace=wrap;html=1;rotation=0;" vertex="1" parent="1">
          <mxGeometry x="2800" y="3198" width="56" height="30" as="geometry" />
        </mxCell>
        <mxCell id="_GlBLlb9-DX69AZyZuQx-169" value="&lt;span style=&quot;color: rgb(0, 0, 0); font-family: Helvetica; font-size: 12px; font-style: normal; font-variant-ligatures: normal; font-variant-caps: normal; font-weight: 400; letter-spacing: normal; orphans: 2; text-align: center; text-indent: 0px; text-transform: none; widows: 2; word-spacing: 0px; -webkit-text-stroke-width: 0px; white-space: normal; background-color: rgb(251, 251, 251); text-decoration-thickness: initial; text-decoration-style: initial; text-decoration-color: initial; display: inline !important; float: none;&quot;&gt;írás/törlés&lt;/span&gt;" style="text;whiteSpace=wrap;html=1;" vertex="1" parent="1">
          <mxGeometry x="2669" y="2926" width="74" height="30" as="geometry" />
        </mxCell>
        <mxCell id="_GlBLlb9-DX69AZyZuQx-170" value="" style="endArrow=classic;html=1;rounded=0;exitX=0;exitY=0.5;exitDx=0;exitDy=0;entryX=1;entryY=0.5;entryDx=0;entryDy=0;" edge="1" parent="1" source="_GlBLlb9-DX69AZyZuQx-8" target="_GlBLlb9-DX69AZyZuQx-172">
          <mxGeometry width="50" height="50" relative="1" as="geometry">
            <mxPoint x="2143" y="3130" as="sourcePoint" />
            <mxPoint x="2187" y="3101" as="targetPoint" />
          </mxGeometry>
        </mxCell>
        <mxCell id="_GlBLlb9-DX69AZyZuQx-171" value="" style="group" vertex="1" connectable="0" parent="1">
          <mxGeometry x="2023" y="3060.003333333333" width="164" height="82" as="geometry" />
        </mxCell>
        <mxCell id="_GlBLlb9-DX69AZyZuQx-172" value="Profil törlése" style="rounded=0;whiteSpace=wrap;html=1;" vertex="1" parent="_GlBLlb9-DX69AZyZuQx-171">
          <mxGeometry width="164" height="82" as="geometry" />
        </mxCell>
        <mxCell id="_GlBLlb9-DX69AZyZuQx-173" value="" style="endArrow=none;html=1;rounded=0;exitX=0;exitY=0.25;exitDx=0;exitDy=0;entryX=1;entryY=0.25;entryDx=0;entryDy=0;" edge="1" parent="_GlBLlb9-DX69AZyZuQx-171" source="_GlBLlb9-DX69AZyZuQx-172" target="_GlBLlb9-DX69AZyZuQx-172">
          <mxGeometry width="50" height="50" relative="1" as="geometry">
            <mxPoint x="54.66666666666667" y="68.33333333333333" as="sourcePoint" />
            <mxPoint x="123" as="targetPoint" />
          </mxGeometry>
        </mxCell>
        <mxCell id="_GlBLlb9-DX69AZyZuQx-174" value="" style="endArrow=none;html=1;rounded=0;exitX=0.25;exitY=0;exitDx=0;exitDy=0;" edge="1" parent="_GlBLlb9-DX69AZyZuQx-171" source="_GlBLlb9-DX69AZyZuQx-172">
          <mxGeometry width="50" height="50" relative="1" as="geometry">
            <mxPoint x="41" y="-6.833333333333334" as="sourcePoint" />
            <mxPoint x="41" y="20.5" as="targetPoint" />
          </mxGeometry>
        </mxCell>
        <mxCell id="_GlBLlb9-DX69AZyZuQx-175" value="&lt;font style=&quot;font-size: 11px;&quot;&gt;3&lt;/font&gt;" style="text;html=1;align=center;verticalAlign=middle;resizable=0;points=[];autosize=1;strokeColor=none;fillColor=none;" vertex="1" parent="_GlBLlb9-DX69AZyZuQx-171">
          <mxGeometry x="10" y="-4" width="26" height="28" as="geometry" />
        </mxCell>
        <mxCell id="_GlBLlb9-DX69AZyZuQx-176" value="Profil oldal" style="text;html=1;align=center;verticalAlign=middle;resizable=0;points=[];autosize=1;strokeColor=none;fillColor=none;" vertex="1" parent="_GlBLlb9-DX69AZyZuQx-171">
          <mxGeometry x="54" y="-4.00333333333333" width="76" height="28" as="geometry" />
        </mxCell>
        <mxCell id="_GlBLlb9-DX69AZyZuQx-177" value="" style="endArrow=classic;html=1;rounded=0;exitX=0.5;exitY=0;exitDx=0;exitDy=0;entryX=0.411;entryY=0.018;entryDx=0;entryDy=0;entryPerimeter=0;" edge="1" parent="1" source="_GlBLlb9-DX69AZyZuQx-172" target="_GlBLlb9-DX69AZyZuQx-80">
          <mxGeometry width="50" height="50" relative="1" as="geometry">
            <mxPoint x="2189" y="3060" as="sourcePoint" />
            <mxPoint x="2239" y="3010" as="targetPoint" />
            <Array as="points">
              <mxPoint x="2105" y="3046" />
              <mxPoint x="2425" y="3046" />
            </Array>
          </mxGeometry>
        </mxCell>
        <mxCell id="_GlBLlb9-DX69AZyZuQx-178" value="" style="group" vertex="1" connectable="0" parent="1">
          <mxGeometry x="2003" y="3788.003333333333" width="164" height="82" as="geometry" />
        </mxCell>
        <mxCell id="_GlBLlb9-DX69AZyZuQx-179" value="Felhasználó kezelése" style="rounded=0;whiteSpace=wrap;html=1;" vertex="1" parent="_GlBLlb9-DX69AZyZuQx-178">
          <mxGeometry width="164" height="82" as="geometry" />
        </mxCell>
        <mxCell id="_GlBLlb9-DX69AZyZuQx-180" value="" style="endArrow=none;html=1;rounded=0;exitX=0;exitY=0.25;exitDx=0;exitDy=0;entryX=1;entryY=0.25;entryDx=0;entryDy=0;" edge="1" parent="_GlBLlb9-DX69AZyZuQx-178" source="_GlBLlb9-DX69AZyZuQx-179" target="_GlBLlb9-DX69AZyZuQx-179">
          <mxGeometry width="50" height="50" relative="1" as="geometry">
            <mxPoint x="54.66666666666667" y="68.33333333333333" as="sourcePoint" />
            <mxPoint x="123" as="targetPoint" />
          </mxGeometry>
        </mxCell>
        <mxCell id="_GlBLlb9-DX69AZyZuQx-181" value="" style="endArrow=none;html=1;rounded=0;exitX=0.25;exitY=0;exitDx=0;exitDy=0;" edge="1" parent="_GlBLlb9-DX69AZyZuQx-178" source="_GlBLlb9-DX69AZyZuQx-179">
          <mxGeometry width="50" height="50" relative="1" as="geometry">
            <mxPoint x="41" y="-6.833333333333334" as="sourcePoint" />
            <mxPoint x="41" y="20.5" as="targetPoint" />
          </mxGeometry>
        </mxCell>
        <mxCell id="_GlBLlb9-DX69AZyZuQx-182" value="&lt;font style=&quot;font-size: 11px;&quot;&gt;14&lt;/font&gt;" style="text;html=1;align=center;verticalAlign=middle;resizable=0;points=[];autosize=1;strokeColor=none;fillColor=none;" vertex="1" parent="_GlBLlb9-DX69AZyZuQx-178">
          <mxGeometry x="7" y="-4" width="32" height="28" as="geometry" />
        </mxCell>
        <mxCell id="_GlBLlb9-DX69AZyZuQx-183" value="" style="endArrow=classic;html=1;rounded=0;exitX=0.378;exitY=1;exitDx=0;exitDy=0;exitPerimeter=0;entryX=0.25;entryY=0;entryDx=0;entryDy=0;" edge="1" parent="1" source="_GlBLlb9-DX69AZyZuQx-2" target="_GlBLlb9-DX69AZyZuQx-179">
          <mxGeometry width="50" height="50" relative="1" as="geometry">
            <mxPoint x="2263" y="3668" as="sourcePoint" />
            <mxPoint x="2313" y="3618" as="targetPoint" />
            <Array as="points">
              <mxPoint x="2387" y="3624" />
              <mxPoint x="2044" y="3624" />
            </Array>
          </mxGeometry>
        </mxCell>
        <mxCell id="_GlBLlb9-DX69AZyZuQx-184" value="" style="group" vertex="1" connectable="0" parent="1">
          <mxGeometry x="2230" y="3814" width="157" height="30.000000000000057" as="geometry" />
        </mxCell>
        <mxCell id="_GlBLlb9-DX69AZyZuQx-185" value="&amp;nbsp;L1" style="html=1;dashed=0;whiteSpace=wrap;shape=mxgraph.dfd.dataStoreID;align=left;spacingLeft=3;points=[[0,0],[0.5,0],[1,0],[0,0.5],[1,0.5],[0,1],[0.5,1],[1,1]];" vertex="1" parent="_GlBLlb9-DX69AZyZuQx-184">
          <mxGeometry width="152" height="30" as="geometry" />
        </mxCell>
        <mxCell id="_GlBLlb9-DX69AZyZuQx-186" value="" style="endArrow=none;html=1;rounded=0;entryX=0.078;entryY=0.005;entryDx=0;entryDy=0;entryPerimeter=0;exitX=0.077;exitY=1.001;exitDx=0;exitDy=0;exitPerimeter=0;" edge="1" parent="_GlBLlb9-DX69AZyZuQx-184">
          <mxGeometry width="50" height="50" relative="1" as="geometry">
            <mxPoint x="4.699999999999932" y="30.000000000000057" as="sourcePoint" />
            <mxPoint x="4.7999999999999545" y="0.12000000000000455" as="targetPoint" />
          </mxGeometry>
        </mxCell>
        <mxCell id="_GlBLlb9-DX69AZyZuQx-187" value="Felhasználói adatok" style="text;html=1;align=center;verticalAlign=middle;resizable=0;points=[];autosize=1;strokeColor=none;fillColor=none;" vertex="1" parent="_GlBLlb9-DX69AZyZuQx-184">
          <mxGeometry x="27" width="130" height="30" as="geometry" />
        </mxCell>
        <mxCell id="_GlBLlb9-DX69AZyZuQx-188" value="" style="endArrow=classic;html=1;rounded=0;exitX=1;exitY=0.5;exitDx=0;exitDy=0;" edge="1" parent="1" source="_GlBLlb9-DX69AZyZuQx-179">
          <mxGeometry width="50" height="50" relative="1" as="geometry">
            <mxPoint x="2230.74" y="3810.0033333333336" as="sourcePoint" />
            <mxPoint x="2230" y="3829" as="targetPoint" />
          </mxGeometry>
        </mxCell>
        <mxCell id="_GlBLlb9-DX69AZyZuQx-189" value="hozzáadás/törlés" style="text;html=1;align=center;verticalAlign=middle;resizable=0;points=[];autosize=1;strokeColor=none;fillColor=none;" vertex="1" parent="1">
          <mxGeometry x="2773" y="3472.5" width="110" height="28" as="geometry" />
        </mxCell>
        <mxCell id="_GlBLlb9-DX69AZyZuQx-190" value="" style="endArrow=classic;html=1;rounded=0;exitX=0.342;exitY=0.002;exitDx=0;exitDy=0;exitPerimeter=0;entryX=0.341;entryY=1.002;entryDx=0;entryDy=0;entryPerimeter=0;" edge="1" parent="1" source="_GlBLlb9-DX69AZyZuQx-49" target="_GlBLlb9-DX69AZyZuQx-43">
          <mxGeometry width="50" height="50" relative="1" as="geometry">
            <mxPoint x="2875" y="3518.5" as="sourcePoint" />
            <mxPoint x="2877" y="3464.5" as="targetPoint" />
          </mxGeometry>
        </mxCell>
        <mxCell id="_GlBLlb9-DX69AZyZuQx-191" value="" style="endArrow=classic;html=1;rounded=0;entryX=0.75;entryY=1;entryDx=0;entryDy=0;" edge="1" parent="1" source="_GlBLlb9-DX69AZyZuQx-143" target="_GlBLlb9-DX69AZyZuQx-37">
          <mxGeometry width="50" height="50" relative="1" as="geometry">
            <mxPoint x="3116" y="3272.5" as="sourcePoint" />
            <mxPoint x="3166" y="3222.5" as="targetPoint" />
          </mxGeometry>
        </mxCell>
        <mxCell id="_GlBLlb9-DX69AZyZuQx-192" value="" style="endArrow=classic;html=1;rounded=0;exitX=1.003;exitY=0.183;exitDx=0;exitDy=0;exitPerimeter=0;entryX=0.25;entryY=1;entryDx=0;entryDy=0;" edge="1" parent="1" source="_GlBLlb9-DX69AZyZuQx-2" target="_GlBLlb9-DX69AZyZuQx-55">
          <mxGeometry width="50" height="50" relative="1" as="geometry">
            <mxPoint x="2582" y="3408" as="sourcePoint" />
            <mxPoint x="2632" y="3358" as="targetPoint" />
            <Array as="points">
              <mxPoint x="2590" y="3423" />
            </Array>
          </mxGeometry>
        </mxCell>
        <mxCell id="_GlBLlb9-DX69AZyZuQx-193" value="" style="endArrow=classic;startArrow=classic;html=1;rounded=0;entryX=0.003;entryY=0.51;entryDx=0;entryDy=0;exitX=0.5;exitY=0;exitDx=0;exitDy=0;entryPerimeter=0;" edge="1" parent="1" source="_GlBLlb9-DX69AZyZuQx-161" target="_GlBLlb9-DX69AZyZuQx-66">
          <mxGeometry width="50" height="50" relative="1" as="geometry">
            <mxPoint x="2730" y="3230" as="sourcePoint" />
            <mxPoint x="2780" y="3180" as="targetPoint" />
            <Array as="points">
              <mxPoint x="2778" y="3124" />
            </Array>
          </mxGeometry>
        </mxCell>
        <mxCell id="_GlBLlb9-DX69AZyZuQx-194" value="" style="endArrow=classic;html=1;rounded=0;exitX=0;exitY=0;exitDx=0;exitDy=0;entryX=0.359;entryY=0.998;entryDx=0;entryDy=0;entryPerimeter=0;" edge="1" parent="1" source="_GlBLlb9-DX69AZyZuQx-55" target="_GlBLlb9-DX69AZyZuQx-19">
          <mxGeometry width="50" height="50" relative="1" as="geometry">
            <mxPoint x="2566" y="3080" as="sourcePoint" />
            <mxPoint x="2616" y="3030" as="targetPoint" />
          </mxGeometry>
        </mxCell>
        <mxCell id="_GlBLlb9-DX69AZyZuQx-195" value="&lt;span style=&quot;text-wrap: wrap;&quot;&gt;megtekintés/&lt;/span&gt;&lt;div&gt;&lt;span style=&quot;text-wrap: wrap;&quot;&gt;készítés/törlés&lt;/span&gt;&lt;/div&gt;" style="text;html=1;align=center;verticalAlign=middle;resizable=0;points=[];autosize=1;strokeColor=none;fillColor=none;rotation=-90;" vertex="1" parent="1">
          <mxGeometry x="2518" y="3022" width="96" height="42" as="geometry" />
        </mxCell>
        <mxCell id="_GlBLlb9-DX69AZyZuQx-196" value="" style="endArrow=classic;startArrow=classic;html=1;rounded=0;entryX=0.5;entryY=1;entryDx=0;entryDy=0;exitX=0.25;exitY=0;exitDx=0;exitDy=0;" edge="1" parent="1" source="_GlBLlb9-DX69AZyZuQx-23" target="_GlBLlb9-DX69AZyZuQx-112">
          <mxGeometry width="50" height="50" relative="1" as="geometry">
            <mxPoint x="2528" y="2890" as="sourcePoint" />
            <mxPoint x="2578" y="2840" as="targetPoint" />
          </mxGeometry>
        </mxCell>
        <mxCell id="_GlBLlb9-DX69AZyZuQx-197" style="edgeStyle=orthogonalEdgeStyle;rounded=0;orthogonalLoop=1;jettySize=auto;html=1;entryX=1;entryY=0.5;entryDx=0;entryDy=0;" edge="1" parent="1" source="_GlBLlb9-DX69AZyZuQx-127" target="_GlBLlb9-DX69AZyZuQx-145">
          <mxGeometry relative="1" as="geometry">
            <Array as="points">
              <mxPoint x="3191" y="3534" />
              <mxPoint x="3048" y="3534" />
              <mxPoint x="3048" y="3655" />
            </Array>
          </mxGeometry>
        </mxCell>
        <mxCell id="_GlBLlb9-DX69AZyZuQx-198" value="Betöltés" style="text;html=1;align=center;verticalAlign=middle;resizable=0;points=[];autosize=1;strokeColor=none;fillColor=none;" vertex="1" parent="1">
          <mxGeometry x="3076" y="3508" width="62" height="28" as="geometry" />
        </mxCell>
        <mxCell id="_GlBLlb9-DX69AZyZuQx-199" style="edgeStyle=orthogonalEdgeStyle;rounded=0;orthogonalLoop=1;jettySize=auto;html=1;entryX=0.237;entryY=0.99;entryDx=0;entryDy=0;entryPerimeter=0;" edge="1" parent="1" source="_GlBLlb9-DX69AZyZuQx-80" target="_GlBLlb9-DX69AZyZuQx-150">
          <mxGeometry relative="1" as="geometry">
            <mxPoint x="2734" y="3372" as="targetPoint" />
            <Array as="points">
              <mxPoint x="2480" y="3384" />
              <mxPoint x="2734" y="3384" />
            </Array>
          </mxGeometry>
        </mxCell>
        <mxCell id="_GlBLlb9-DX69AZyZuQx-200" style="edgeStyle=orthogonalEdgeStyle;rounded=0;orthogonalLoop=1;jettySize=auto;html=1;entryX=0.595;entryY=0.997;entryDx=0;entryDy=0;entryPerimeter=0;" edge="1" parent="1" source="_GlBLlb9-DX69AZyZuQx-129" target="_GlBLlb9-DX69AZyZuQx-150">
          <mxGeometry relative="1" as="geometry">
            <Array as="points">
              <mxPoint x="3207" y="3388" />
              <mxPoint x="3006" y="3388" />
              <mxPoint x="3006" y="3366" />
              <mxPoint x="2788" y="3366" />
              <mxPoint x="2788" y="3346" />
            </Array>
          </mxGeometry>
        </mxCell>
        <mxCell id="_GlBLlb9-DX69AZyZuQx-201" value="" style="group" vertex="1" connectable="0" parent="1">
          <mxGeometry x="1880" y="3328" width="157" height="30.000000000000057" as="geometry" />
        </mxCell>
        <mxCell id="_GlBLlb9-DX69AZyZuQx-202" value="&amp;nbsp;L1" style="html=1;dashed=0;whiteSpace=wrap;shape=mxgraph.dfd.dataStoreID;align=left;spacingLeft=3;points=[[0,0],[0.5,0],[1,0],[0,0.5],[1,0.5],[0,1],[0.5,1],[1,1]];" vertex="1" parent="_GlBLlb9-DX69AZyZuQx-201">
          <mxGeometry width="152" height="30" as="geometry" />
        </mxCell>
        <mxCell id="_GlBLlb9-DX69AZyZuQx-203" value="" style="endArrow=none;html=1;rounded=0;entryX=0.078;entryY=0.005;entryDx=0;entryDy=0;entryPerimeter=0;exitX=0.077;exitY=1.001;exitDx=0;exitDy=0;exitPerimeter=0;" edge="1" parent="_GlBLlb9-DX69AZyZuQx-201">
          <mxGeometry width="50" height="50" relative="1" as="geometry">
            <mxPoint x="4.699999999999932" y="30.000000000000057" as="sourcePoint" />
            <mxPoint x="4.7999999999999545" y="0.12000000000000455" as="targetPoint" />
          </mxGeometry>
        </mxCell>
        <mxCell id="_GlBLlb9-DX69AZyZuQx-204" value="Felhasználói adatok" style="text;html=1;align=center;verticalAlign=middle;resizable=0;points=[];autosize=1;strokeColor=none;fillColor=none;" vertex="1" parent="_GlBLlb9-DX69AZyZuQx-201">
          <mxGeometry x="27" width="130" height="30" as="geometry" />
        </mxCell>
        <mxCell id="_GlBLlb9-DX69AZyZuQx-205" value="felhasználó tiltása (admin)" style="text;html=1;align=center;verticalAlign=middle;resizable=0;points=[];autosize=1;strokeColor=none;fillColor=none;" vertex="1" parent="1">
          <mxGeometry x="2151" y="3601" width="158" height="28" as="geometry" />
        </mxCell>
        <mxCell id="_GlBLlb9-DX69AZyZuQx-206" style="edgeStyle=orthogonalEdgeStyle;rounded=0;orthogonalLoop=1;jettySize=auto;html=1;entryX=0.5;entryY=0;entryDx=0;entryDy=0;" edge="1" parent="1" source="_GlBLlb9-DX69AZyZuQx-204" target="_GlBLlb9-DX69AZyZuQx-157">
          <mxGeometry relative="1" as="geometry" />
        </mxCell>
        <mxCell id="_GlBLlb9-DX69AZyZuQx-207" style="edgeStyle=orthogonalEdgeStyle;rounded=0;orthogonalLoop=1;jettySize=auto;html=1;" edge="1" parent="1" source="_GlBLlb9-DX69AZyZuQx-116" target="_GlBLlb9-DX69AZyZuQx-114">
          <mxGeometry relative="1" as="geometry" />
        </mxCell>
        <mxCell id="_GlBLlb9-DX69AZyZuQx-208" style="edgeStyle=orthogonalEdgeStyle;rounded=0;orthogonalLoop=1;jettySize=auto;html=1;entryX=0.5;entryY=1;entryDx=0;entryDy=0;exitX=0.5;exitY=0;exitDx=0;exitDy=0;" edge="1" parent="1" source="_GlBLlb9-DX69AZyZuQx-25" target="_GlBLlb9-DX69AZyZuQx-116">
          <mxGeometry relative="1" as="geometry" />
        </mxCell>
      </root>
    </mxGraphModel>
  </diagram>
</mxfile>
